<svg xmlns="http://www.w3.org/2000/svg" xmlns:xlink="http://www.w3.org/1999/xlink" width="500" zoomAndPan="magnify" viewBox="0 0 375 374.999991" height="500" preserveAspectRatio="xMidYMid meet" version="1.0"><defs><g/><clipPath id="ff84b70b70"><path d="M 215 255 L 222 255 L 222 259.515625 L 215 259.515625 Z M 215 255 " clip-rule="nonzero"/></clipPath><clipPath id="b718ec2dba"><path d="M 206 246 L 231 246 L 231 259.515625 L 206 259.515625 Z M 206 246 " clip-rule="nonzero"/></clipPath><clipPath id="738b560955"><path d="M 189 255 L 196 255 L 196 259.515625 L 189 259.515625 Z M 189 255 " clip-rule="nonzero"/></clipPath><clipPath id="db42279a91"><path d="M 180 246 L 205 246 L 205 259.515625 L 180 259.515625 Z M 180 246 " clip-rule="nonzero"/></clipPath><clipPath id="97492f8e6a"><path d="M 230 210 L 246.96875 210 L 246.96875 225 L 230 225 Z M 230 210 " clip-rule="nonzero"/></clipPath><clipPath id="735c8a59ee"><path d="M 132.351562 190 L 149 190 L 149 206 L 132.351562 206 Z M 132.351562 190 " clip-rule="nonzero"/></clipPath><clipPath id="d1fad5e25e"><path d="M 139 163 L 203 163 L 203 262.5 L 139 262.5 Z M 139 163 " clip-rule="nonzero"/></clipPath><clipPath id="89a4e9d03a"><path d="M 216 140 L 242.601562 140 L 242.601562 155 L 216 155 Z M 216 140 " clip-rule="nonzero"/></clipPath><clipPath id="dc95fe9172"><path d="M 191 112.5 L 207 112.5 L 207 127 L 191 127 Z M 191 112.5 " clip-rule="nonzero"/></clipPath><clipPath id="b6e4f85c64"><path d="M 64 75 L 304 75 L 304 358.988281 L 64 358.988281 Z M 64 75 " clip-rule="nonzero"/></clipPath></defs><g clip-path="url(#ff84b70b70)"><path fill="#f9b233" d="M 221.265625 255.84375 C 221.488281 255.949219 221.664062 256.109375 221.796875 256.3125 C 221.859375 256.421875 221.882812 256.535156 221.867188 256.65625 C 221.851562 256.777344 221.796875 256.882812 221.710938 256.96875 C 221.410156 257.199219 220.929688 256.96875 220.675781 257.242188 C 220.425781 257.511719 220.609375 257.90625 220.394531 258.140625 C 220.019531 258.582031 219.140625 257.855469 218.769531 258.296875 C 218.691406 258.4375 218.625 258.585938 218.566406 258.738281 C 218.359375 259.09375 217.839844 259.070312 217.445312 258.941406 C 216.632812 258.675781 215.832031 258.039062 215.777344 257.1875 C 215.78125 256.847656 215.863281 256.535156 216.035156 256.242188 C 216.207031 255.953125 216.4375 255.722656 216.730469 255.554688 C 218.078125 254.722656 219.96875 255.078125 221.265625 255.84375 Z M 221.265625 255.84375 " fill-opacity="1" fill-rule="nonzero"/></g><g clip-path="url(#b718ec2dba)"><path stroke-linecap="butt" transform="matrix(0.301075, 0, 0, 0.300681, 132.110168, 138.576567)" fill="none" stroke-linejoin="miter" d="M 296.123513 390.004866 C 296.86305 390.355632 297.446895 390.888277 297.888022 391.563826 C 298.095612 391.927583 298.173458 392.304331 298.12156 392.707063 C 298.069663 393.109794 297.888022 393.46056 297.602587 393.746369 C 296.603564 394.512857 295.007721 393.746369 294.164389 394.655762 C 293.334032 395.552164 293.943826 396.864288 293.230237 397.643768 C 291.984701 399.111788 289.065477 396.695401 287.832915 398.163421 C 287.573429 398.631108 287.352865 399.124779 287.15825 399.631441 C 286.47061 400.813652 284.745024 400.735704 283.434617 400.30699 C 280.735956 399.42358 278.076218 397.305993 277.894577 394.473883 C 277.907552 393.343638 278.180013 392.304331 278.750883 391.329982 C 279.321754 390.368624 280.087239 389.602135 281.060314 389.043508 C 285.536459 386.276355 291.816035 387.458566 296.123513 390.004866 Z M 296.123513 390.004866 " stroke="#000000" stroke-width="2.11" stroke-opacity="1" stroke-miterlimit="10"/></g><g clip-path="url(#738b560955)"><path fill="#f9b233" d="M 189.628906 255.84375 C 189.410156 255.949219 189.234375 256.109375 189.101562 256.3125 C 189.039062 256.421875 189.015625 256.535156 189.03125 256.65625 C 189.046875 256.777344 189.101562 256.882812 189.1875 256.96875 C 189.472656 257.199219 189.96875 256.96875 190.21875 257.242188 C 190.472656 257.511719 190.289062 257.90625 190.503906 258.140625 C 190.878906 258.582031 191.757812 257.855469 192.128906 258.296875 C 192.234375 258.421875 192.246094 258.597656 192.332031 258.738281 C 192.539062 259.09375 193.058594 259.070312 193.453125 258.941406 C 194.265625 258.675781 195.066406 258.039062 195.121094 257.1875 C 195.117188 256.847656 195.03125 256.535156 194.863281 256.242188 C 194.691406 255.953125 194.460938 255.722656 194.167969 255.554688 C 192.820312 254.722656 190.929688 255.078125 189.628906 255.84375 Z M 189.628906 255.84375 " fill-opacity="1" fill-rule="nonzero"/></g><g clip-path="url(#db42279a91)"><path stroke-linecap="butt" transform="matrix(0.301075, 0, 0, 0.300681, 132.110168, 138.576567)" fill="none" stroke-linejoin="miter" d="M 191.044401 390.004866 C 190.317838 390.355632 189.733993 390.888277 189.292866 391.563826 C 189.085277 391.927583 189.007431 392.304331 189.059328 392.707063 C 189.111225 393.109794 189.292866 393.46056 189.578301 393.746369 C 190.525428 394.512857 192.173168 393.746369 193.003525 394.655762 C 193.846857 395.552164 193.237063 396.864288 193.950651 397.643768 C 195.196187 399.111788 198.115412 396.695401 199.347973 398.163421 C 199.69828 398.579143 199.737203 399.163753 200.022638 399.631441 C 200.710278 400.813652 202.435864 400.735704 203.746272 400.30699 C 206.444933 399.42358 209.104671 397.305993 209.286311 394.473883 C 209.273337 393.343638 208.987902 392.304331 208.430005 391.329982 C 207.859135 390.368624 207.093649 389.602135 206.120574 389.043508 C 201.64443 386.276355 195.364853 387.458566 191.044401 390.004866 Z M 191.044401 390.004866 " stroke="#000000" stroke-width="2.11" stroke-opacity="1" stroke-miterlimit="10"/></g><path fill="#575756" d="M 238.273438 224.050781 C 238.273438 224.050781 246.96875 215.847656 245.832031 212.523438 C 244.695312 209.199219 231.121094 215.625 231.121094 215.625 " fill-opacity="1" fill-rule="nonzero"/><g clip-path="url(#97492f8e6a)"><path stroke-linecap="round" transform="matrix(0.301075, 0, 0, 0.300681, 132.110168, 138.576567)" fill="none" stroke-linejoin="round" d="M 352.613753 284.268443 C 352.613753 284.268443 381.494616 256.986653 377.719085 245.931032 C 373.943555 234.875412 328.857752 256.246147 328.857752 256.246147 " stroke="#000000" stroke-width="5.62" stroke-opacity="1" stroke-miterlimit="4"/></g><path stroke-linecap="round" transform="matrix(0.301075, 0, 0, 0.300681, 132.110168, 138.576567)" fill-opacity="1" fill="#575756" fill-rule="nonzero" stroke-linejoin="round" d="M 156.402935 289.919671 C 156.402935 289.919671 120.554857 307.068225 111.602568 299.585219 C 102.637305 292.089223 138.757844 257.675193 138.757844 257.675193 " stroke="#000000" stroke-width="5.62" stroke-opacity="1" stroke-miterlimit="4"/><path stroke-linecap="round" transform="matrix(0.301075, 0, 0, 0.300681, 132.110168, 138.576567)" fill-opacity="1" fill="#fffbbd" fill-rule="nonzero" stroke-linejoin="round" d="M 266.996139 140.506401 C 267.035062 141.87049 266.97019 143.23458 266.801524 144.585678 L 218.095882 146.495403 C 217.771524 144.923452 217.589884 143.33851 217.563935 141.740577 C 217.537986 140.142643 217.667729 138.557701 217.953165 136.972759 C 218.2386 135.400809 218.666753 133.867832 219.250598 132.38682 C 219.834443 130.892817 220.561005 129.476763 221.430286 128.125664 C 222.286592 126.774566 223.272641 125.527399 224.375459 124.371171 C 225.491252 123.214942 226.697864 122.175636 228.008272 121.253252 C 229.318679 120.330867 230.706933 119.551388 232.160058 118.901821 C 233.626157 118.252255 235.144154 117.758584 236.701074 117.394827 C 238.219071 117.03107 239.750042 116.823209 241.306962 116.771243 C 243.149317 116.693295 244.978698 116.823209 246.78213 117.173974 C 249.532688 117.680636 252.140529 118.641995 254.566729 120.032067 C 257.005903 121.422139 259.146668 123.175968 260.976049 125.293555 C 262.818404 127.411141 264.258555 129.775563 265.283527 132.38682 C 266.321473 134.998077 266.892344 137.700274 266.996139 140.506401 Z M 266.996139 140.506401 " stroke="#000000" stroke-width="5.62" stroke-opacity="1" stroke-miterlimit="4"/><path stroke-linecap="round" transform="matrix(0.301075, 0, 0, 0.300681, 132.110168, 138.576567)" fill-opacity="1" fill="#f9c975" fill-rule="nonzero" stroke-linejoin="round" d="M 251.997811 143.663293 L 233.00339 144.403799 C 232.341699 139.71393 232.341699 135.02406 233.00339 130.33419 C 233.600209 126.280896 234.83277 122.435463 236.727023 118.810882 C 238.257994 118.473107 239.788965 118.278237 241.345885 118.226272 C 243.18824 118.148324 245.004646 118.252255 246.821053 118.564047 C 247.223257 119.512414 247.586538 120.447789 247.910897 121.43513 C 250.414943 128.632326 251.777248 136.037384 251.997811 143.663293 Z M 251.997811 143.663293 " stroke="#000000" stroke-width="2.66" stroke-opacity="1" stroke-miterlimit="4"/><path fill="#000000" d="M 205.40625 172.53125 C 205.40625 172.734375 205.335938 172.910156 205.1875 173.054688 C 205.042969 173.199219 204.867188 173.273438 204.664062 173.273438 C 204.457031 173.273438 204.28125 173.199219 204.136719 173.054688 C 203.992188 172.910156 203.917969 172.734375 203.917969 172.53125 C 203.917969 172.324219 203.992188 172.148438 204.136719 172.003906 C 204.28125 171.859375 204.457031 171.785156 204.664062 171.785156 C 204.867188 171.785156 205.042969 171.859375 205.1875 172.003906 C 205.335938 172.148438 205.40625 172.324219 205.40625 172.53125 Z M 205.40625 172.53125 " fill-opacity="1" fill-rule="nonzero"/><path fill="#000000" d="M 204.945312 172.492188 C 204.949219 172.535156 204.882812 172.578125 204.746094 172.625 C 204.613281 172.671875 204.421875 172.710938 204.175781 172.753906 C 203.925781 172.792969 203.640625 172.828125 203.3125 172.855469 C 202.988281 172.886719 202.648438 172.90625 202.296875 172.921875 C 201.941406 172.933594 201.601562 172.941406 201.277344 172.9375 C 200.949219 172.933594 200.660156 172.921875 200.410156 172.898438 C 200.160156 172.878906 199.964844 172.851562 199.828125 172.816406 C 199.691406 172.78125 199.621094 172.742188 199.621094 172.699219 C 199.617188 172.65625 199.683594 172.613281 199.820312 172.570312 C 199.953125 172.523438 200.144531 172.480469 200.390625 172.441406 C 200.640625 172.402344 200.925781 172.367188 201.253906 172.335938 C 201.578125 172.308594 201.917969 172.285156 202.269531 172.273438 C 202.625 172.257812 202.964844 172.253906 203.289062 172.257812 C 203.617188 172.261719 203.90625 172.273438 204.15625 172.292969 C 204.40625 172.316406 204.601562 172.34375 204.738281 172.375 C 204.875 172.410156 204.945312 172.449219 204.945312 172.492188 Z M 204.945312 172.492188 " fill-opacity="1" fill-rule="nonzero"/><path fill="#000000" d="M 209.808594 172.199219 C 209.808594 172.242188 209.742188 172.289062 209.609375 172.332031 C 209.476562 172.378906 209.285156 172.421875 209.039062 172.460938 C 208.789062 172.5 208.5 172.535156 208.175781 172.566406 C 207.851562 172.59375 207.511719 172.617188 207.160156 172.628906 C 206.804688 172.644531 206.464844 172.648438 206.136719 172.644531 C 205.8125 172.640625 205.523438 172.628906 205.273438 172.609375 C 205.019531 172.585938 204.828125 172.558594 204.691406 172.523438 C 204.554688 172.492188 204.484375 172.453125 204.484375 172.410156 C 204.480469 172.367188 204.546875 172.320312 204.679688 172.277344 C 204.8125 172.230469 205.003906 172.1875 205.253906 172.148438 C 205.503906 172.109375 205.789062 172.074219 206.113281 172.046875 C 206.441406 172.015625 206.78125 171.996094 207.132812 171.980469 C 207.484375 171.964844 207.824219 171.960938 208.152344 171.964844 C 208.480469 171.96875 208.769531 171.980469 209.019531 172.003906 C 209.269531 172.023438 209.464844 172.050781 209.601562 172.085938 C 209.738281 172.121094 209.804688 172.15625 209.808594 172.199219 Z M 209.808594 172.199219 " fill-opacity="1" fill-rule="nonzero"/><path stroke-linecap="round" transform="matrix(0.301075, 0, 0, 0.300681, 132.110168, 138.576567)" fill-opacity="1" fill="#575756" fill-rule="nonzero" stroke-linejoin="round" d="M 349.746426 268.445005 C 346.347151 260.28645 344.712385 251.790121 344.855103 242.956018 C 345.542743 209.568303 333.55446 185.144606 316.415368 168.009043 C 304.44006 155.979073 290.427782 147.2489 274.352585 141.805534 C 248.676382 133.322196 221.482183 138.219927 212.789381 141.259898 C 201.709302 145.09234 191.394708 150.431776 181.858574 157.265215 C 158.297188 174.257872 139.938508 201.838463 140.768866 242.943027 C 140.924558 251.77713 139.289792 260.28645 135.877543 268.445005 C 114.885074 319.306056 130.00017 383.756037 194.884803 389.6541 C 210.583744 391.096138 226.879505 392.044505 242.811984 391.9016 C 258.809335 392.044505 275.053199 391.096138 290.75214 389.6541 C 355.623798 383.769029 370.72592 319.306056 349.746426 268.445005 Z M 349.746426 268.445005 " stroke="#000000" stroke-width="5.62" stroke-opacity="1" stroke-miterlimit="4"/><path stroke-linecap="round" transform="matrix(0.301075, 0, 0, 0.300681, 132.110168, 138.576567)" fill-opacity="1" fill="#ffffff" fill-rule="nonzero" stroke-linejoin="round" d="M 326.120168 277.538935 C 322.811714 268.769788 321.241819 259.701841 321.384537 250.335093 C 321.81269 227.678216 315.481216 208.85378 302.571756 194.342466 C 286.340867 176.154606 262.001021 167.996052 245.095467 167.996052 C 244.317007 167.996052 243.564496 167.996052 242.811984 168.074 C 242.059473 168.138957 241.306962 167.996052 240.528502 167.996052 C 223.609973 167.996052 199.283101 176.154606 183.065187 194.355458 C 170.155727 208.840789 163.824253 227.665224 164.226457 250.348084 C 164.395124 259.714832 162.825229 268.782779 159.503801 277.551926 C 150.746127 300.884352 151.2651 326.217443 160.866105 343.651806 C 168.326346 357.175779 178.796632 361.397961 197.077465 366.529536 C 206.717394 369.244723 222.961257 370.310012 234.625181 370.660778 C 235.961537 370.712743 237.323842 370.738726 238.699121 370.764709 L 246.924847 370.764709 C 248.300127 370.764709 249.675406 370.712743 250.998788 370.660778 C 262.675686 370.310012 278.906575 369.244723 288.546504 366.529536 C 306.814363 361.397961 317.310597 357.175779 324.757863 343.651806 C 334.358869 326.204452 334.877842 300.884352 326.120168 277.538935 Z M 326.120168 277.538935 " stroke="#000000" stroke-width="2.81" stroke-opacity="1" stroke-miterlimit="4"/><path stroke-linecap="butt" transform="matrix(0.301075, 0, 0, 0.300681, 132.110168, 138.576567)" fill-opacity="1" fill="#f9b233" fill-rule="nonzero" stroke-linejoin="miter" d="M 248.066589 243.540628 C 244.498647 242.254486 240.943681 242.306452 237.414662 243.696524 C 236.441587 244.112246 235.715025 244.787795 235.247949 245.736162 C 234.780873 246.684529 234.677078 247.67187 234.936565 248.698185 C 235.676102 251.699182 237.881738 255.323763 241.890807 256.064268 C 246.937822 256.064268 249.895969 251.933026 250.583609 248.022636 C 250.76525 247.074269 250.609558 246.164876 250.142482 245.32044 C 249.662431 244.476003 248.974792 243.878402 248.066589 243.540628 Z M 248.066589 243.540628 " stroke="#000000" stroke-width="2.11" stroke-opacity="1" stroke-miterlimit="10"/><path fill="#ff9791" d="M 220.625 216.992188 C 220.722656 217.210938 220.761719 217.445312 220.738281 217.699219 C 220.714844 217.953125 220.628906 218.207031 220.484375 218.460938 C 220.339844 218.714844 220.144531 218.949219 219.902344 219.160156 C 219.65625 219.375 219.382812 219.550781 219.078125 219.691406 C 218.769531 219.832031 218.457031 219.925781 218.136719 219.972656 C 217.816406 220.019531 217.511719 220.019531 217.226562 219.964844 C 216.9375 219.910156 216.691406 219.808594 216.480469 219.664062 C 216.269531 219.515625 216.117188 219.332031 216.015625 219.117188 C 215.914062 218.898438 215.875 218.664062 215.902344 218.410156 C 215.925781 218.15625 216.011719 217.902344 216.15625 217.648438 C 216.300781 217.394531 216.496094 217.160156 216.738281 216.949219 C 216.980469 216.734375 217.257812 216.558594 217.5625 216.417969 C 217.867188 216.273438 218.179688 216.179688 218.503906 216.132812 C 218.824219 216.085938 219.125 216.089844 219.414062 216.144531 C 219.699219 216.199219 219.949219 216.300781 220.160156 216.445312 C 220.367188 216.59375 220.523438 216.773438 220.625 216.992188 Z M 220.625 216.992188 " fill-opacity="1" fill-rule="nonzero"/><path fill="#ff9791" d="M 192.820312 216.363281 C 193.089844 216.5625 193.324219 216.789062 193.523438 217.046875 C 193.71875 217.304688 193.863281 217.570312 193.953125 217.847656 C 194.046875 218.125 194.078125 218.390625 194.050781 218.644531 C 194.023438 218.898438 193.941406 219.121094 193.800781 219.316406 C 193.65625 219.507812 193.46875 219.65625 193.234375 219.757812 C 193 219.859375 192.738281 219.910156 192.445312 219.90625 C 192.152344 219.902344 191.855469 219.84375 191.546875 219.734375 C 191.242188 219.625 190.957031 219.472656 190.683594 219.273438 C 190.414062 219.074219 190.179688 218.847656 189.980469 218.589844 C 189.785156 218.332031 189.640625 218.0625 189.550781 217.789062 C 189.457031 217.511719 189.425781 217.246094 189.453125 216.992188 C 189.476562 216.734375 189.5625 216.511719 189.703125 216.320312 C 189.847656 216.125 190.035156 215.980469 190.269531 215.875 C 190.503906 215.773438 190.765625 215.726562 191.058594 215.730469 C 191.351562 215.734375 191.648438 215.789062 191.953125 215.898438 C 192.257812 216.007812 192.546875 216.164062 192.820312 216.363281 Z M 192.820312 216.363281 " fill-opacity="1" fill-rule="nonzero"/><path stroke-linecap="butt" transform="matrix(0.301075, 0, 0, 0.300681, 132.110168, 138.576567)" fill-opacity="1" fill="#9fcfe3" fill-rule="nonzero" stroke-linejoin="miter" d="M 235.844768 290.582229 C 234.521386 291.244786 233.172056 291.309743 231.783802 290.79009 C 230.356626 290.049584 229.837653 288.256781 229.720884 286.645856 C 229.604115 284.931001 229.759807 283.242128 230.174985 281.592229 C 230.421498 280.046261 231.225906 278.877042 232.575237 278.08457 C 233.57426 277.681839 234.573284 277.681839 235.572307 278.08457 C 236.519433 278.487302 237.388714 279.006955 238.206097 279.64353 C 239.29594 280.358053 240.307938 281.202489 241.203167 282.163848 C 244.874903 286.593891 239.646247 289.114208 235.844768 290.582229 Z M 235.844768 290.582229 " stroke="#000000" stroke-width="2.11" stroke-opacity="1" stroke-miterlimit="10"/><path stroke-linecap="butt" transform="matrix(0.301075, 0, 0, 0.300681, 132.110168, 138.576567)" fill-opacity="1" fill="#9fcfe3" fill-rule="nonzero" stroke-linejoin="miter" d="M 249.610534 290.582229 C 250.933916 291.244786 252.283246 291.309743 253.6715 290.79009 C 255.098676 290.049584 255.669547 288.256781 255.734419 286.645856 C 255.864162 284.931001 255.70847 283.242128 255.280317 281.592229 C 255.033805 280.046261 254.229396 278.877042 252.89304 278.08457 C 251.894016 277.681839 250.894993 277.681839 249.895969 278.08457 C 248.948843 278.487302 248.066589 279.006955 247.26218 279.64353 C 246.159362 280.358053 245.160338 281.202489 244.265109 282.163848 C 240.580399 286.593891 245.809055 289.114208 249.610534 290.582229 Z M 249.610534 290.582229 " stroke="#000000" stroke-width="2.11" stroke-opacity="1" stroke-miterlimit="10"/><path stroke-linecap="butt" transform="matrix(0.301075, 0, 0, 0.300681, 132.110168, 138.576567)" fill-opacity="1" fill="#9fcfe3" fill-rule="nonzero" stroke-linejoin="miter" d="M 245.951773 284.476304 C 245.951773 285.281767 245.666337 285.970307 245.095467 286.528934 C 244.524596 287.100553 243.836957 287.386362 243.032548 287.386362 C 242.228139 287.386362 241.5405 287.100553 240.969629 286.528934 C 240.398759 285.970307 240.113323 285.281767 240.113323 284.476304 C 240.113323 283.65785 240.398759 282.96931 240.969629 282.410683 C 241.5405 281.839064 242.228139 281.553255 243.032548 281.553255 C 243.836957 281.553255 244.524596 281.839064 245.095467 282.410683 C 245.666337 282.96931 245.951773 283.65785 245.951773 284.476304 Z M 245.951773 284.476304 " stroke="#000000" stroke-width="2.11" stroke-opacity="1" stroke-miterlimit="10"/><path fill="#000000" d="M 198.84375 213.871094 C 198.84375 214.277344 198.765625 214.667969 198.609375 215.042969 C 198.453125 215.417969 198.230469 215.75 197.945312 216.039062 C 197.65625 216.328125 197.324219 216.546875 196.949219 216.703125 C 196.570312 216.859375 196.179688 216.9375 195.773438 216.9375 C 195.367188 216.9375 194.972656 216.859375 194.597656 216.703125 C 194.222656 216.546875 193.890625 216.328125 193.601562 216.039062 C 193.3125 215.75 193.089844 215.417969 192.933594 215.042969 C 192.78125 214.667969 192.703125 214.277344 192.703125 213.871094 C 192.703125 213.464844 192.78125 213.070312 192.933594 212.695312 C 193.089844 212.320312 193.3125 211.988281 193.601562 211.703125 C 193.890625 211.414062 194.222656 211.191406 194.597656 211.035156 C 194.972656 210.882812 195.367188 210.804688 195.773438 210.804688 C 196.179688 210.804688 196.570312 210.882812 196.949219 211.035156 C 197.324219 211.191406 197.65625 211.414062 197.945312 211.703125 C 198.230469 211.988281 198.453125 212.320312 198.609375 212.695312 C 198.765625 213.070312 198.84375 213.464844 198.84375 213.871094 Z M 198.84375 213.871094 " fill-opacity="1" fill-rule="nonzero"/><path fill="#000000" d="M 217.910156 213.871094 C 217.910156 214.277344 217.832031 214.667969 217.675781 215.042969 C 217.519531 215.417969 217.300781 215.75 217.011719 216.039062 C 216.722656 216.328125 216.390625 216.546875 216.015625 216.703125 C 215.636719 216.859375 215.246094 216.9375 214.839844 216.9375 C 214.433594 216.9375 214.039062 216.859375 213.664062 216.703125 C 213.289062 216.546875 212.957031 216.328125 212.667969 216.039062 C 212.378906 215.75 212.160156 215.417969 212.003906 215.042969 C 211.847656 214.667969 211.769531 214.277344 211.769531 213.871094 C 211.769531 213.464844 211.847656 213.070312 212.003906 212.695312 C 212.160156 212.320312 212.378906 211.988281 212.667969 211.703125 C 212.957031 211.414062 213.289062 211.191406 213.664062 211.035156 C 214.039062 210.882812 214.433594 210.804688 214.839844 210.804688 C 215.246094 210.804688 215.636719 210.882812 216.015625 211.035156 C 216.390625 211.191406 216.722656 211.414062 217.011719 211.703125 C 217.300781 211.988281 217.519531 212.320312 217.675781 212.695312 C 217.832031 213.070312 217.910156 213.464844 217.910156 213.871094 Z M 217.910156 213.871094 " fill-opacity="1" fill-rule="nonzero"/><g fill="#000000" fill-opacity="1"><g transform="translate(224.829307, 178.152236)"><g><path d="M 0.328125 0.1875 L 0.5 -0.09375 L 1.5 0.296875 L 5.265625 -6.15625 L 4.421875 -6.828125 L 4.59375 -7.125 L 7.515625 -5.421875 L 7.34375 -5.125 L 6.328125 -5.546875 L 4.640625 -2.671875 L 8.09375 -0.671875 L 9.78125 -3.546875 L 8.921875 -4.21875 L 9.09375 -4.515625 L 12.015625 -2.8125 L 11.84375 -2.515625 L 10.828125 -2.9375 L 7.0625 3.515625 L 7.921875 4.21875 L 7.75 4.5 L 4.828125 2.796875 L 5 2.515625 L 6.015625 2.90625 L 7.8125 -0.171875 L 4.359375 -2.171875 L 2.5625 0.90625 L 3.421875 1.609375 L 3.25 1.890625 Z M 0.328125 0.1875 "/></g></g></g><g fill="#000000" fill-opacity="1"><g transform="translate(232.903048, 182.84013)"><g><path d="M 6.03125 -5.609375 C 5.9375 -5.441406 5.796875 -5.332031 5.609375 -5.28125 C 5.421875 -5.238281 5.242188 -5.265625 5.078125 -5.359375 C 4.921875 -5.453125 4.816406 -5.585938 4.765625 -5.765625 C 4.722656 -5.953125 4.75 -6.128906 4.84375 -6.296875 C 4.9375 -6.453125 5.078125 -6.554688 5.265625 -6.609375 C 5.453125 -6.660156 5.625 -6.640625 5.78125 -6.546875 C 5.945312 -6.453125 6.050781 -6.3125 6.09375 -6.125 C 6.144531 -5.9375 6.125 -5.765625 6.03125 -5.609375 Z M 2.234375 0.796875 L 3.03125 1.421875 L 2.890625 1.671875 L 0.234375 0.140625 L 0.375 -0.109375 L 1.328125 0.265625 L 3.875 -4.09375 L 3.21875 -4.65625 L 3.359375 -4.90625 L 5 -3.953125 Z M 2.234375 0.796875 "/></g></g></g><g fill="#000000" fill-opacity="1"><g transform="translate(236.009173, 184.643654)"><g><path d="M 2.8125 0.953125 C 2.707031 1.128906 2.550781 1.242188 2.34375 1.296875 C 2.144531 1.359375 1.945312 1.335938 1.75 1.234375 C 1.5625 1.117188 1.445312 0.960938 1.40625 0.765625 C 1.363281 0.566406 1.394531 0.378906 1.5 0.203125 C 1.601562 0.015625 1.753906 -0.101562 1.953125 -0.15625 C 2.148438 -0.207031 2.335938 -0.179688 2.515625 -0.078125 C 2.710938 0.0234375 2.835938 0.175781 2.890625 0.375 C 2.941406 0.570312 2.914062 0.765625 2.8125 0.953125 Z M 5.515625 -6.578125 L 6.71875 -5.890625 L 3.34375 -0.90625 L 2.828125 -1.203125 Z M 5.515625 -6.578125 "/></g></g></g><path fill="#fab716" d="M 157.167969 215.132812 C 157.167969 215.132812 148.542969 199.148438 144.253906 198.757812 C 139.960938 198.367188 141.300781 209.691406 150.144531 220.992188 Z M 157.167969 215.132812 " fill-opacity="1" fill-rule="nonzero"/><g clip-path="url(#735c8a59ee)"><path fill="#232323" d="M 132.738281 201.257812 C 132.808594 201.480469 132.917969 201.683594 133.0625 201.863281 C 133.210938 202.042969 133.386719 202.1875 133.589844 202.300781 C 133.792969 202.414062 134.007812 202.484375 134.238281 202.511719 C 134.46875 202.542969 134.699219 202.527344 134.921875 202.46875 L 134.921875 202.457031 C 134.917969 202.734375 134.96875 203 135.074219 203.253906 C 135.355469 203.941406 135.703125 204.507812 136.714844 204.679688 C 137.292969 204.78125 138.414062 204.679688 138.917969 204.273438 C 139.019531 204.480469 139.144531 204.671875 139.289062 204.851562 C 139.757812 205.460938 140.375 205.828125 141.132812 205.953125 C 141.550781 206.007812 141.949219 205.953125 142.332031 205.78125 C 142.636719 205.652344 142.890625 205.453125 143.09375 205.191406 C 143.640625 204.46875 143.585938 203.445312 143.3125 202.582031 C 143.578125 202.949219 143.917969 203.222656 144.332031 203.402344 C 144.746094 203.585938 145.175781 203.648438 145.625 203.59375 C 146.507812 203.433594 147.242188 202.609375 147.179688 201.71875 C 147.171875 201.378906 147.035156 201.101562 146.773438 200.886719 C 146.96875 200.84375 147.15625 200.789062 147.34375 200.722656 C 147.484375 200.671875 147.621094 200.609375 147.753906 200.535156 C 148.101562 200.335938 148.398438 200.078125 148.648438 199.757812 C 148.84375 199.460938 148.945312 199.132812 148.960938 198.777344 C 148.976562 198.421875 148.902344 198.089844 148.734375 197.773438 C 148.546875 197.445312 148.292969 197.175781 147.972656 196.972656 C 147.65625 196.769531 147.304688 196.652344 146.929688 196.625 L 146.929688 196.585938 L 146.953125 196.605469 C 147.257812 196.335938 147.445312 195.996094 147.511719 195.59375 C 147.578125 195.191406 147.507812 194.8125 147.308594 194.457031 C 147.085938 194.117188 146.78125 193.882812 146.394531 193.757812 C 146.007812 193.632812 145.625 193.644531 145.246094 193.796875 C 145.441406 193.445312 145.546875 193.066406 145.550781 192.664062 C 145.511719 192.164062 145.15625 191.742188 144.75 191.453125 C 143.566406 190.605469 141.953125 190.570312 140.84375 191.507812 L 140.835938 191.507812 C 140.710938 191.269531 140.554688 191.046875 140.371094 190.847656 C 140.097656 190.492188 139.746094 190.25 139.316406 190.117188 C 138.949219 190.066406 138.585938 190.097656 138.234375 190.21875 C 137.6875 190.363281 137.117188 190.554688 136.765625 190.992188 C 136.324219 191.523438 136.335938 192.285156 136.46875 192.960938 C 136.347656 192.523438 135.789062 192.300781 135.316406 192.324219 C 134.90625 192.355469 134.535156 192.492188 134.203125 192.734375 C 133.867188 192.980469 133.625 193.289062 133.46875 193.671875 C 133.171875 194.421875 133.203125 195.0625 133.753906 195.65625 C 133.238281 195.835938 132.84375 196.160156 132.574219 196.628906 C 132.4375 196.851562 132.363281 197.089844 132.351562 197.347656 C 132.367188 197.785156 132.546875 198.140625 132.882812 198.417969 C 133.207031 198.675781 133.558594 198.878906 133.945312 199.035156 C 133.722656 199.109375 133.519531 199.222656 133.339844 199.375 C 133.164062 199.523438 133.015625 199.703125 132.90625 199.910156 C 132.792969 200.117188 132.722656 200.335938 132.695312 200.570312 C 132.664062 200.800781 132.679688 201.03125 132.738281 201.257812 Z M 138.882812 204.230469 L 138.894531 204.230469 C 138.894531 204.238281 138.894531 204.242188 138.894531 204.246094 Z M 138.882812 204.230469 " fill-opacity="1" fill-rule="nonzero"/></g><g clip-path="url(#d1fad5e25e)"><path fill="#fab716" d="M 173.472656 203.632812 C 173.472656 203.632812 180.394531 205.8125 181.515625 192.464844 C 182.636719 179.121094 179.488281 163.691406 179.488281 163.691406 L 201.847656 168.210938 C 204.453125 215.507812 197.4375 241.152344 197.4375 241.152344 L 195.53125 257.507812 C 195.472656 258.015625 195.335938 258.503906 195.121094 258.972656 C 194.90625 259.4375 194.621094 259.855469 194.273438 260.230469 C 193.921875 260.609375 193.523438 260.917969 193.070312 261.164062 C 192.621094 261.410156 192.144531 261.582031 191.636719 261.671875 C 189.328125 262.089844 186.226562 262.445312 183.457031 262.078125 C 182.921875 262.003906 182.414062 261.84375 181.933594 261.597656 C 181.453125 261.351562 181.027344 261.03125 180.652344 260.640625 C 180.28125 260.25 179.980469 259.808594 179.757812 259.316406 C 179.535156 258.824219 179.398438 258.308594 179.351562 257.769531 L 178.109375 244.410156 C 178.109375 244.410156 167.007812 246.894531 162.796875 244.789062 C 162.796875 244.789062 162.4375 249.160156 162.378906 253.691406 C 162.375 254.191406 162.316406 254.6875 162.210938 255.175781 C 162.105469 255.667969 161.949219 256.140625 161.75 256.597656 C 161.546875 257.058594 161.300781 257.492188 161.011719 257.898438 C 160.722656 258.308594 160.398438 258.683594 160.03125 259.027344 C 159.667969 259.371094 159.269531 259.675781 158.84375 259.9375 C 158.417969 260.199219 157.972656 260.417969 157.5 260.59375 C 157.03125 260.765625 156.550781 260.890625 156.054688 260.964844 C 155.558594 261.042969 155.0625 261.066406 154.5625 261.042969 L 148.960938 260.765625 C 148.128906 260.726562 147.328125 260.550781 146.554688 260.242188 C 145.78125 259.933594 145.082031 259.507812 144.449219 258.960938 C 143.820312 258.417969 143.296875 257.785156 142.878906 257.066406 C 142.460938 256.34375 142.171875 255.578125 142.011719 254.761719 C 140.898438 249.160156 140.148438 243.515625 139.761719 237.820312 C 139.488281 233.472656 139.480469 228.953125 139.960938 224.6875 C 140.539062 219.574219 141.820312 214.839844 144.199219 211.242188 C 144.449219 210.859375 144.71875 210.488281 144.996094 210.140625 C 146.613281 208.027344 148.605469 206.363281 150.972656 205.148438 C 153.421875 203.902344 156.039062 203.308594 158.703125 203.082031 C 163.746094 202.640625 168.953125 203.492188 173.46875 203.632812 " fill-opacity="1" fill-rule="nonzero"/></g><path fill="#d78f28" d="M 157.726562 206.976562 C 157.726562 207.589844 157.792969 208.195312 157.929688 208.792969 C 158.066406 209.390625 158.265625 209.964844 158.53125 210.519531 C 158.792969 211.070312 159.117188 211.585938 159.496094 212.066406 C 159.875 212.550781 160.300781 212.980469 160.777344 213.367188 C 161.253906 213.753906 161.765625 214.082031 162.316406 214.351562 C 162.867188 214.621094 163.4375 214.828125 164.035156 214.972656 C 164.628906 215.113281 165.234375 215.191406 165.84375 215.199219 C 166.457031 215.207031 167.0625 215.148438 167.660156 215.019531 C 168.261719 214.890625 168.839844 214.699219 169.394531 214.445312 C 169.949219 214.1875 170.472656 213.875 170.957031 213.5 C 171.445312 213.128906 171.882812 212.707031 172.273438 212.234375 C 172.667969 211.765625 173 211.257812 173.28125 210.710938 C 173.558594 210.164062 173.773438 209.59375 173.925781 209 C 174.074219 208.40625 174.160156 207.804688 174.175781 207.191406 C 174.191406 206.582031 174.140625 205.972656 174.023438 205.371094 C 173.902344 204.773438 173.71875 204.191406 173.472656 203.632812 C 168.957031 203.492188 163.753906 202.640625 158.707031 203.078125 C 158.050781 204.296875 157.722656 205.59375 157.726562 206.976562 Z M 157.726562 206.976562 " fill-opacity="1" fill-rule="nonzero"/><path fill="#d78f28" d="M 191.378906 225.996094 C 191.378906 226.644531 191.316406 227.285156 191.1875 227.921875 C 191.0625 228.558594 190.875 229.175781 190.628906 229.773438 C 190.378906 230.371094 190.078125 230.9375 189.714844 231.476562 C 189.355469 232.015625 188.949219 232.515625 188.488281 232.972656 C 188.03125 233.429688 187.535156 233.839844 186.996094 234.199219 C 186.457031 234.558594 185.890625 234.863281 185.289062 235.109375 C 184.691406 235.359375 184.074219 235.546875 183.441406 235.671875 C 182.804688 235.796875 182.164062 235.863281 181.515625 235.863281 C 180.871094 235.863281 180.226562 235.796875 179.59375 235.671875 C 178.957031 235.546875 178.339844 235.359375 177.742188 235.109375 C 177.144531 234.863281 176.578125 234.558594 176.039062 234.199219 C 175.5 233.839844 175 233.429688 174.542969 232.972656 C 174.085938 232.515625 173.675781 232.015625 173.316406 231.476562 C 172.957031 230.9375 172.652344 230.371094 172.40625 229.773438 C 172.160156 229.175781 171.972656 228.558594 171.84375 227.921875 C 171.71875 227.285156 171.65625 226.644531 171.65625 225.996094 C 171.65625 225.347656 171.71875 224.707031 171.84375 224.074219 C 171.972656 223.4375 172.160156 222.820312 172.40625 222.222656 C 172.652344 221.625 172.957031 221.054688 173.316406 220.515625 C 173.675781 219.976562 174.085938 219.480469 174.542969 219.023438 C 175 218.5625 175.5 218.15625 176.039062 217.796875 C 176.578125 217.433594 177.144531 217.132812 177.742188 216.882812 C 178.339844 216.636719 178.957031 216.449219 179.59375 216.320312 C 180.226562 216.195312 180.871094 216.132812 181.515625 216.132812 C 182.164062 216.132812 182.804688 216.195312 183.441406 216.320312 C 184.074219 216.449219 184.691406 216.636719 185.289062 216.882812 C 185.890625 217.132812 186.457031 217.433594 186.996094 217.796875 C 187.535156 218.15625 188.03125 218.5625 188.488281 219.023438 C 188.949219 219.480469 189.355469 219.976562 189.714844 220.515625 C 190.078125 221.054688 190.378906 221.625 190.628906 222.222656 C 190.875 222.820312 191.0625 223.4375 191.1875 224.074219 C 191.316406 224.707031 191.378906 225.347656 191.378906 225.996094 Z M 191.378906 225.996094 " fill-opacity="1" fill-rule="nonzero"/><path fill="#d78f28" d="M 139.769531 237.820312 C 140.210938 238.378906 140.703125 238.886719 141.25 239.34375 C 141.792969 239.796875 142.378906 240.195312 143.007812 240.53125 C 143.632812 240.863281 144.285156 241.132812 144.96875 241.335938 C 145.652344 241.535156 146.34375 241.664062 147.054688 241.722656 C 147.761719 241.78125 148.46875 241.769531 149.175781 241.679688 C 149.878906 241.59375 150.570312 241.4375 151.242188 241.207031 C 151.914062 240.980469 152.558594 240.683594 153.171875 240.324219 C 153.785156 239.964844 154.351562 239.542969 154.878906 239.066406 C 155.40625 238.589844 155.878906 238.0625 156.296875 237.488281 C 156.714844 236.914062 157.070312 236.300781 157.363281 235.652344 C 157.65625 235.003906 157.878906 234.335938 158.035156 233.640625 C 158.191406 232.945312 158.273438 232.242188 158.285156 231.53125 C 158.292969 230.820312 158.234375 230.117188 158.097656 229.417969 C 157.964844 228.722656 157.761719 228.042969 157.488281 227.386719 C 157.214844 226.730469 156.878906 226.109375 156.476562 225.523438 C 156.078125 224.933594 155.621094 224.394531 155.109375 223.902344 C 154.597656 223.40625 154.039062 222.972656 153.4375 222.59375 C 152.835938 222.214844 152.203125 221.898438 151.539062 221.648438 C 150.871094 221.402344 150.1875 221.222656 149.484375 221.113281 C 148.78125 221.007812 148.078125 220.96875 147.367188 221.007812 C 146.65625 221.042969 145.957031 221.152344 145.269531 221.332031 C 144.582031 221.515625 143.921875 221.761719 143.285156 222.078125 C 142.648438 222.394531 142.050781 222.773438 141.492188 223.214844 C 140.933594 223.652344 140.425781 224.144531 139.964844 224.6875 C 139.484375 228.941406 139.496094 233.472656 139.769531 237.820312 Z M 139.769531 237.820312 " fill-opacity="1" fill-rule="nonzero"/><path fill="#fab716" d="M 178.429688 126.519531 C 178.964844 130.777344 181.308594 137.476562 186.441406 141.242188 C 188.023438 142.414062 189.777344 143.222656 191.695312 143.667969 C 203.441406 146.402344 196.957031 133.722656 196.957031 133.722656 C 196.957031 133.722656 180.058594 120.691406 178.648438 122.832031 C 178.300781 123.351562 178.203125 124.722656 178.429688 126.519531 Z M 178.429688 126.519531 " fill-opacity="1" fill-rule="nonzero"/><path fill="#d78f28" d="M 178.429688 126.519531 C 178.964844 130.777344 181.308594 137.476562 186.441406 141.242188 L 190.390625 138.855469 C 190.390625 138.855469 182.542969 132.316406 178.429688 126.519531 Z M 178.429688 126.519531 " fill-opacity="1" fill-rule="nonzero"/><g clip-path="url(#89a4e9d03a)"><path fill="#fab716" d="M 241.050781 145.144531 C 238.644531 148.695312 233.511719 153.597656 227.226562 154.621094 C 225.285156 154.949219 223.359375 154.875 221.449219 154.402344 C 209.738281 151.5 221.277344 143.160156 221.277344 143.160156 C 221.277344 143.160156 242.25 139.222656 242.53125 141.769531 C 242.601562 142.386719 242.070312 143.644531 241.050781 145.144531 Z M 241.050781 145.144531 " fill-opacity="1" fill-rule="nonzero"/></g><path fill="#d78f28" d="M 241.050781 145.144531 C 238.644531 148.695312 233.511719 153.597656 227.226562 154.621094 L 224.804688 150.699219 C 224.804688 150.699219 234.753906 148.441406 241.050781 145.144531 Z M 241.050781 145.144531 " fill-opacity="1" fill-rule="nonzero"/><path fill="#fab716" d="M 224.519531 143.816406 C 224.519531 143.816406 230.160156 131.605469 229.367188 129.949219 C 228.574219 128.292969 225.679688 127.46875 224.917969 127.527344 C 222.703125 127.679688 217.722656 139.664062 217.722656 139.664062 Z M 224.519531 143.816406 " fill-opacity="1" fill-rule="nonzero"/><path fill="#fab716" d="M 201.191406 135.550781 C 201.191406 135.550781 202.675781 122.179688 201.390625 120.863281 C 200.105469 119.546875 197.105469 119.683594 196.402344 119.980469 C 194.351562 120.832031 193.433594 133.785156 193.433594 133.785156 Z M 201.191406 135.550781 " fill-opacity="1" fill-rule="nonzero"/><path fill="#fab716" d="M 205.339844 131.300781 C 204.5625 131.199219 186.703125 129.441406 174.140625 154.226562 L 228.132812 170.574219 C 228.132812 170.574219 235.347656 135.097656 205.339844 131.300781 Z M 205.339844 131.300781 " fill-opacity="1" fill-rule="nonzero"/><path fill="#232323" d="M 220.925781 124.703125 C 220.648438 125.378906 220.667969 125.960938 221.160156 126.503906 C 220.691406 126.660156 220.332031 126.957031 220.082031 127.382812 C 219.953125 127.582031 219.878906 127.796875 219.859375 128.03125 C 219.867188 128.429688 220.023438 128.757812 220.328125 129.011719 C 220.617188 129.25 220.9375 129.441406 221.28125 129.585938 C 221.078125 129.652344 220.894531 129.753906 220.730469 129.886719 C 220.566406 130.023438 220.429688 130.183594 220.324219 130.371094 C 220.222656 130.554688 220.15625 130.753906 220.125 130.964844 C 220.097656 131.175781 220.105469 131.386719 220.15625 131.59375 C 220.292969 132.0625 220.585938 132.402344 221.023438 132.609375 C 221.378906 132.789062 221.746094 132.828125 222.125 132.726562 C 222.121094 132.976562 222.160156 133.21875 222.253906 133.453125 C 222.5 134.078125 222.808594 134.597656 223.722656 134.777344 C 224.25 134.875 225.265625 134.804688 225.726562 134.433594 C 225.816406 134.621094 225.925781 134.800781 226.054688 134.964844 C 226.472656 135.527344 227.027344 135.871094 227.71875 135.996094 L 227.828125 136.007812 C 228.148438 136.042969 228.453125 136 228.753906 135.878906 C 229.050781 135.757812 229.300781 135.574219 229.507812 135.328125 C 230.019531 134.679688 229.984375 133.75 229.730469 132.960938 C 229.964844 133.296875 230.273438 133.546875 230.648438 133.71875 C 231.023438 133.886719 231.417969 133.945312 231.828125 133.898438 C 232.621094 133.769531 233.308594 133.015625 233.265625 132.21875 C 233.261719 131.910156 233.140625 131.65625 232.90625 131.453125 C 233.21875 131.398438 233.519531 131.296875 233.800781 131.148438 C 234.121094 130.972656 234.398438 130.742188 234.625 130.453125 C 234.804688 130.1875 234.90625 129.894531 234.925781 129.570312 C 234.945312 129.246094 234.878906 128.941406 234.730469 128.65625 C 234.566406 128.355469 234.339844 128.109375 234.050781 127.917969 C 233.765625 127.730469 233.449219 127.617188 233.105469 127.585938 L 233.105469 127.554688 L 233.128906 127.570312 C 233.417969 127.335938 233.597656 127.03125 233.664062 126.664062 C 233.730469 126.296875 233.667969 125.953125 233.480469 125.628906 C 233.289062 125.304688 233.019531 125.082031 232.664062 124.960938 C 232.3125 124.839844 231.960938 124.847656 231.613281 124.984375 C 231.800781 124.667969 231.898438 124.328125 231.90625 123.957031 C 231.839844 123.480469 231.601562 123.113281 231.195312 122.855469 C 230.132812 122.070312 228.667969 122.015625 227.648438 122.855469 L 227.625 122.855469 C 227.515625 122.632812 227.378906 122.429688 227.210938 122.242188 C 226.96875 121.917969 226.652344 121.691406 226.265625 121.566406 C 225.929688 121.511719 225.601562 121.535156 225.277344 121.640625 C 224.78125 121.765625 224.257812 121.929688 223.929688 122.324219 C 223.535156 122.804688 223.527344 123.492188 223.636719 124.109375 C 223.535156 123.703125 223.03125 123.496094 222.601562 123.515625 C 222.234375 123.542969 221.898438 123.664062 221.597656 123.875 C 221.296875 124.089844 221.074219 124.363281 220.925781 124.703125 Z M 225.707031 134.386719 L 225.707031 134.402344 Z M 225.707031 134.386719 " fill-opacity="1" fill-rule="nonzero"/><g clip-path="url(#dc95fe9172)"><path fill="#232323" d="M 191.667969 118.441406 C 191.667969 119.171875 191.902344 119.707031 192.550781 120.023438 C 192.175781 120.351562 191.957031 120.757812 191.890625 121.25 C 191.84375 121.480469 191.855469 121.707031 191.929688 121.933594 C 192.085938 122.300781 192.351562 122.546875 192.734375 122.667969 C 193.09375 122.78125 193.460938 122.839844 193.835938 122.84375 C 193.671875 122.980469 193.539062 123.144531 193.4375 123.332031 C 193.332031 123.519531 193.269531 123.71875 193.242188 123.929688 C 193.214844 124.140625 193.226562 124.347656 193.277344 124.554688 C 193.328125 124.761719 193.417969 124.953125 193.539062 125.128906 C 193.671875 125.292969 193.828125 125.425781 194.011719 125.53125 C 194.195312 125.632812 194.394531 125.703125 194.601562 125.730469 C 194.808594 125.761719 195.015625 125.75 195.222656 125.699219 C 195.425781 125.648438 195.617188 125.5625 195.789062 125.441406 L 195.789062 125.429688 C 195.875 125.664062 196.003906 125.871094 196.175781 126.054688 C 196.640625 126.546875 197.117188 126.914062 198.03125 126.730469 C 198.558594 126.628906 199.476562 126.179688 199.761719 125.667969 C 199.917969 125.808594 200.085938 125.933594 200.265625 126.039062 C 200.765625 126.339844 201.308594 126.46875 201.890625 126.421875 C 201.992188 126.414062 202.09375 126.398438 202.191406 126.371094 C 202.523438 126.296875 202.816406 126.148438 203.070312 125.917969 C 203.320312 125.6875 203.5 125.414062 203.605469 125.089844 C 203.828125 124.296875 203.457031 123.441406 202.933594 122.804688 C 203.28125 123.027344 203.660156 123.148438 204.070312 123.164062 C 204.484375 123.179688 204.871094 123.089844 205.234375 122.890625 C 205.921875 122.476562 206.28125 121.53125 205.941406 120.796875 C 205.820312 120.511719 205.617188 120.320312 205.324219 120.21875 C 205.59375 120.054688 205.832031 119.847656 206.039062 119.601562 C 206.273438 119.320312 206.441406 119.003906 206.546875 118.65625 C 206.613281 118.335938 206.59375 118.027344 206.488281 117.71875 C 206.378906 117.414062 206.203125 117.15625 205.957031 116.945312 C 205.691406 116.726562 205.386719 116.585938 205.050781 116.515625 C 204.710938 116.445312 204.378906 116.460938 204.046875 116.558594 L 204.046875 116.523438 L 204.074219 116.535156 C 204.246094 116.203125 204.292969 115.859375 204.21875 115.496094 C 204.144531 115.132812 203.960938 114.832031 203.675781 114.597656 C 203.375 114.375 203.042969 114.277344 202.671875 114.296875 C 202.300781 114.316406 201.980469 114.449219 201.703125 114.699219 C 201.757812 114.335938 201.722656 113.984375 201.59375 113.636719 C 201.355469 113.21875 201 112.964844 200.527344 112.871094 C 199.242188 112.539062 197.867188 113.035156 197.21875 114.195312 L 197.203125 114.195312 C 197.019531 114.03125 196.816406 113.890625 196.59375 113.78125 C 196.242188 113.570312 195.867188 113.476562 195.460938 113.507812 C 195.128906 113.582031 194.835938 113.730469 194.578125 113.949219 C 194.160156 114.25 193.742188 114.597656 193.582031 115.082031 C 193.394531 115.679688 193.640625 116.316406 193.972656 116.847656 C 193.726562 116.507812 193.179688 116.503906 192.789062 116.683594 C 192.453125 116.84375 192.183594 117.085938 191.980469 117.402344 C 191.777344 117.71875 191.675781 118.066406 191.667969 118.441406 Z M 199.714844 125.644531 C 199.714844 125.644531 199.714844 125.644531 199.730469 125.652344 Z M 199.714844 125.644531 " fill-opacity="1" fill-rule="nonzero"/></g><path fill="#ffd79d" d="M 204.417969 152.222656 C 205.601562 152.523438 206.777344 152.859375 207.9375 153.234375 C 209.097656 153.609375 210.238281 154.019531 211.363281 154.464844 C 212.488281 154.910156 213.585938 155.390625 214.664062 155.902344 C 215.742188 156.417969 216.789062 156.960938 217.808594 157.535156 C 218.832031 158.109375 219.816406 158.714844 220.769531 159.347656 C 221.722656 159.976562 222.636719 160.632812 223.511719 161.316406 C 224.386719 162 225.222656 162.703125 226.015625 163.429688 C 226.804688 164.15625 227.550781 164.902344 228.25 165.664062 C 228.949219 166.429688 229.597656 167.207031 230.199219 168 C 230.796875 168.792969 231.34375 169.597656 231.839844 170.410156 C 232.335938 171.226562 232.773438 172.050781 233.160156 172.878906 C 233.542969 173.707031 233.871094 174.539062 234.144531 175.375 C 234.417969 176.210938 234.628906 177.046875 234.785156 177.878906 C 234.941406 178.710938 235.039062 179.539062 235.078125 180.363281 C 235.113281 181.1875 235.09375 182.003906 235.015625 182.808594 C 234.933594 183.613281 234.796875 184.40625 234.597656 185.1875 C 234.402344 185.96875 234.148438 186.730469 233.835938 187.476562 C 233.523438 188.226562 233.15625 188.953125 232.730469 189.660156 C 232.304688 190.367188 231.828125 191.050781 231.292969 191.710938 C 230.761719 192.367188 230.179688 193 229.542969 193.609375 C 228.90625 194.214844 228.222656 194.789062 227.492188 195.339844 C 226.757812 195.886719 225.980469 196.398438 225.160156 196.882812 C 224.335938 197.363281 223.472656 197.8125 222.570312 198.226562 C 221.664062 198.636719 220.722656 199.015625 219.746094 199.355469 C 218.769531 199.695312 217.757812 199.996094 216.71875 200.261719 C 215.675781 200.523438 214.609375 200.746094 213.511719 200.933594 C 212.417969 201.117188 211.300781 201.261719 210.164062 201.363281 C 209.023438 201.46875 207.871094 201.53125 206.699219 201.554688 C 205.53125 201.574219 204.347656 201.554688 203.15625 201.496094 C 201.964844 201.4375 200.769531 201.335938 199.566406 201.195312 C 198.367188 201.054688 197.167969 200.871094 195.96875 200.648438 C 194.769531 200.429688 193.578125 200.167969 192.390625 199.867188 C 191.207031 199.570312 190.03125 199.230469 188.871094 198.859375 C 187.710938 198.484375 186.570312 198.074219 185.445312 197.628906 C 184.320312 197.179688 183.222656 196.703125 182.144531 196.1875 C 181.066406 195.675781 180.019531 195.132812 179 194.558594 C 177.976562 193.980469 176.992188 193.378906 176.039062 192.746094 C 175.085938 192.113281 174.171875 191.457031 173.296875 190.773438 C 172.421875 190.09375 171.585938 189.386719 170.792969 188.660156 C 170.003906 187.933594 169.257812 187.191406 168.558594 186.425781 C 167.859375 185.664062 167.210938 184.886719 166.609375 184.09375 C 166.011719 183.300781 165.464844 182.496094 164.96875 181.679688 C 164.472656 180.867188 164.035156 180.042969 163.648438 179.214844 C 163.265625 178.382812 162.9375 177.550781 162.664062 176.71875 C 162.390625 175.882812 162.179688 175.046875 162.023438 174.214844 C 161.867188 173.378906 161.769531 172.550781 161.730469 171.726562 C 161.695312 170.902344 161.714844 170.089844 161.792969 169.285156 C 161.875 168.476562 162.011719 167.683594 162.210938 166.90625 C 162.40625 166.125 162.660156 165.359375 162.972656 164.613281 C 163.285156 163.867188 163.652344 163.140625 164.078125 162.433594 C 164.503906 161.726562 164.980469 161.042969 165.515625 160.382812 C 166.046875 159.722656 166.628906 159.089844 167.265625 158.484375 C 167.902344 157.878906 168.585938 157.300781 169.316406 156.753906 C 170.050781 156.207031 170.828125 155.691406 171.648438 155.210938 C 172.472656 154.726562 173.335938 154.28125 174.238281 153.867188 C 175.144531 153.453125 176.085938 153.078125 177.0625 152.738281 C 178.039062 152.398438 179.050781 152.09375 180.089844 151.832031 C 181.132812 151.566406 182.199219 151.34375 183.296875 151.160156 C 184.390625 150.976562 185.507812 150.832031 186.644531 150.726562 C 187.785156 150.625 188.9375 150.5625 190.109375 150.539062 C 191.277344 150.515625 192.460938 150.535156 193.652344 150.597656 C 194.84375 150.65625 196.039062 150.757812 197.242188 150.898438 C 198.441406 151.039062 199.640625 151.222656 200.839844 151.441406 C 202.039062 151.664062 203.230469 151.925781 204.417969 152.222656 Z M 204.417969 152.222656 " fill-opacity="1" fill-rule="nonzero"/><path fill="#d78f28" d="M 185.757812 171.691406 C 185.75 172.15625 185.652344 172.605469 185.464844 173.035156 C 185.28125 173.460938 185.019531 173.839844 184.683594 174.164062 C 184.347656 174.488281 183.960938 174.738281 183.527344 174.910156 C 183.09375 175.078125 182.644531 175.164062 182.175781 175.15625 C 181.707031 175.148438 181.261719 175.050781 180.832031 174.867188 C 180.402344 174.679688 180.027344 174.417969 179.703125 174.085938 C 179.375 173.75 179.128906 173.363281 178.953125 172.929688 C 178.78125 172.496094 178.699219 172.046875 178.707031 171.578125 C 178.710938 171.113281 178.808594 170.664062 178.992188 170.234375 C 179.175781 169.804688 179.4375 169.425781 179.773438 169.101562 C 180.105469 168.777344 180.492188 168.527344 180.925781 168.351562 C 181.359375 168.179688 181.808594 168.09375 182.273438 168.101562 C 182.746094 168.105469 183.195312 168.203125 183.625 168.386719 C 184.054688 168.574219 184.433594 168.835938 184.761719 169.171875 C 185.089844 169.507812 185.339844 169.894531 185.511719 170.332031 C 185.683594 170.769531 185.765625 171.222656 185.757812 171.691406 Z M 185.757812 171.691406 " fill-opacity="1" fill-rule="nonzero"/><path fill="#d78f28" d="M 217.15625 176.390625 C 217.597656 176.503906 218 176.699219 218.363281 176.976562 C 218.730469 177.25 219.027344 177.585938 219.257812 177.976562 C 219.488281 178.371094 219.632812 178.792969 219.695312 179.246094 C 219.757812 179.695312 219.734375 180.144531 219.617188 180.585938 C 219.503906 181.027344 219.308594 181.429688 219.035156 181.792969 C 218.757812 182.15625 218.425781 182.453125 218.03125 182.683594 C 217.636719 182.914062 217.214844 183.0625 216.765625 183.125 C 216.3125 183.1875 215.867188 183.160156 215.425781 183.046875 C 214.984375 182.929688 214.582031 182.734375 214.21875 182.460938 C 213.855469 182.183594 213.558594 181.851562 213.328125 181.457031 C 213.09375 181.066406 212.949219 180.640625 212.886719 180.191406 C 212.824219 179.738281 212.851562 179.292969 212.964844 178.851562 C 213.078125 178.410156 213.273438 178.007812 213.550781 177.644531 C 213.824219 177.28125 214.160156 176.984375 214.550781 176.75 C 214.945312 176.519531 215.367188 176.375 215.820312 176.3125 C 216.269531 176.25 216.714844 176.273438 217.15625 176.390625 Z M 217.15625 176.390625 " fill-opacity="1" fill-rule="nonzero"/><path fill="#232323" d="M 222.121094 143.679688 C 222.058594 143.847656 221.964844 143.996094 221.839844 144.128906 C 221.71875 144.257812 221.574219 144.359375 221.410156 144.433594 C 221.246094 144.507812 221.074219 144.546875 220.894531 144.554688 C 220.714844 144.558594 220.539062 144.53125 220.371094 144.464844 L 216.058594 142.824219 C 215.890625 142.761719 215.738281 142.667969 215.609375 142.542969 C 215.476562 142.421875 215.375 142.277344 215.300781 142.113281 C 215.230469 141.949219 215.191406 141.777344 215.183594 141.597656 C 215.179688 141.417969 215.207031 141.242188 215.273438 141.074219 C 215.335938 140.90625 215.429688 140.757812 215.554688 140.625 C 215.675781 140.496094 215.820312 140.394531 215.984375 140.320312 C 216.148438 140.246094 216.320312 140.207031 216.5 140.199219 C 216.679688 140.195312 216.855469 140.226562 217.023438 140.289062 L 221.335938 141.925781 C 221.503906 141.992188 221.65625 142.085938 221.785156 142.210938 C 221.917969 142.335938 222.019531 142.480469 222.09375 142.644531 C 222.167969 142.808594 222.207031 142.984375 222.210938 143.164062 C 222.21875 143.347656 222.1875 143.519531 222.121094 143.691406 Z M 222.121094 143.679688 " fill-opacity="1" fill-rule="nonzero"/><path fill="#232323" d="M 192.902344 137.351562 C 192.902344 137.53125 192.9375 137.703125 193.007812 137.871094 C 193.078125 138.035156 193.175781 138.183594 193.304688 138.308594 C 193.433594 138.4375 193.578125 138.53125 193.746094 138.601562 C 193.914062 138.667969 194.085938 138.703125 194.265625 138.699219 L 198.878906 138.671875 C 199.058594 138.667969 199.230469 138.632812 199.398438 138.5625 C 199.5625 138.492188 199.710938 138.394531 199.835938 138.265625 C 199.960938 138.136719 200.058594 137.992188 200.128906 137.824219 C 200.195312 137.65625 200.230469 137.484375 200.226562 137.304688 C 200.226562 136.824219 200.023438 136.449219 199.621094 136.183594 C 199.390625 136.03125 199.136719 135.957031 198.863281 135.960938 L 194.25 135.992188 C 194.070312 135.992188 193.898438 136.027344 193.730469 136.097656 C 193.566406 136.167969 193.417969 136.269531 193.292969 136.394531 C 193.167969 136.523438 193.070312 136.671875 193 136.835938 C 192.933594 137.003906 192.898438 137.175781 192.902344 137.355469 Z M 192.902344 137.351562 " fill-opacity="1" fill-rule="nonzero"/><path fill="#232323" d="M 198.574219 185.628906 C 195.875 185.628906 192.332031 184.640625 189.214844 180.558594 C 189.105469 180.425781 189.027344 180.277344 188.976562 180.113281 C 188.929688 179.949219 188.914062 179.78125 188.933594 179.609375 C 188.953125 179.4375 189.003906 179.277344 189.089844 179.128906 C 189.175781 178.980469 189.285156 178.851562 189.421875 178.746094 C 189.558594 178.644531 189.710938 178.570312 189.875 178.527344 C 190.042969 178.484375 190.210938 178.476562 190.382812 178.503906 C 190.550781 178.53125 190.710938 178.589844 190.855469 178.679688 C 191 178.769531 191.125 178.886719 191.222656 179.027344 C 193.484375 181.988281 196.214844 183.347656 199.34375 183.070312 C 200.792969 182.933594 202.148438 182.503906 203.410156 181.785156 C 203.550781 181.703125 203.703125 181.652344 203.863281 181.625 C 204.023438 181.601562 204.183594 181.609375 204.34375 181.648438 C 204.5 181.6875 204.648438 181.753906 204.78125 181.847656 C 204.914062 181.941406 205.023438 182.058594 205.113281 182.195312 C 205.199219 182.332031 205.257812 182.480469 205.289062 182.640625 C 205.320312 182.800781 205.320312 182.960938 205.289062 183.121094 C 205.257812 183.28125 205.195312 183.429688 205.105469 183.566406 C 205.015625 183.703125 204.90625 183.816406 204.773438 183.910156 C 203.160156 184.859375 201.425781 185.414062 199.566406 185.585938 C 199.246094 185.613281 198.917969 185.628906 198.574219 185.628906 Z M 198.574219 185.628906 " fill-opacity="1" fill-rule="nonzero"/><path fill="#ffffff" d="M 205.65625 151.960938 C 205.359375 152.539062 205.117188 153.140625 204.941406 153.765625 C 204.761719 154.390625 204.644531 155.027344 204.589844 155.675781 C 204.535156 156.324219 204.542969 156.972656 204.617188 157.621094 C 204.691406 158.265625 204.828125 158.898438 205.023438 159.519531 C 205.222656 160.136719 205.480469 160.734375 205.792969 161.300781 C 206.109375 161.871094 206.476562 162.402344 206.894531 162.902344 C 207.316406 163.398438 207.78125 163.847656 208.289062 164.253906 C 208.796875 164.660156 209.34375 165.011719 209.921875 165.308594 C 210.5 165.605469 211.101562 165.847656 211.726562 166.027344 C 212.351562 166.207031 212.988281 166.324219 213.636719 166.375 C 214.28125 166.429688 214.929688 166.421875 215.578125 166.347656 C 216.222656 166.273438 216.855469 166.140625 217.476562 165.941406 C 218.09375 165.742188 218.6875 165.484375 219.257812 165.171875 C 219.828125 164.855469 220.359375 164.488281 220.855469 164.066406 C 221.351562 163.648438 221.804688 163.183594 222.210938 162.675781 C 222.613281 162.164062 222.964844 161.621094 223.265625 161.042969 C 223.5625 160.464844 223.800781 159.863281 223.980469 159.238281 C 224.160156 158.613281 224.277344 157.976562 224.332031 157.328125 C 224.386719 156.679688 224.375 156.03125 224.300781 155.386719 C 224.230469 154.738281 224.09375 154.105469 223.894531 153.484375 C 223.699219 152.867188 223.441406 152.273438 223.125 151.703125 C 222.8125 151.132812 222.441406 150.601562 222.023438 150.105469 C 221.601562 149.605469 221.136719 149.15625 220.628906 148.75 C 220.121094 148.34375 219.578125 147.992188 219 147.695312 C 218.421875 147.394531 217.820312 147.152344 217.195312 146.96875 C 216.570312 146.785156 215.933594 146.667969 215.285156 146.609375 C 214.636719 146.554688 213.988281 146.5625 213.339844 146.636719 C 212.691406 146.707031 212.058594 146.84375 211.4375 147.042969 C 210.816406 147.238281 210.222656 147.496094 209.652344 147.8125 C 209.082031 148.128906 208.550781 148.5 208.054688 148.921875 C 207.558594 149.34375 207.109375 149.8125 206.703125 150.320312 C 206.300781 150.832031 205.953125 151.378906 205.65625 151.960938 Z M 205.65625 151.960938 " fill-opacity="1" fill-rule="nonzero"/><path fill="#232323" d="M 206.96875 150.027344 C 207.363281 149.707031 207.785156 149.425781 208.230469 149.179688 C 208.675781 148.9375 209.140625 148.734375 209.625 148.574219 C 210.105469 148.414062 210.597656 148.296875 211.101562 148.222656 C 211.605469 148.152344 212.109375 148.125 212.617188 148.144531 C 213.125 148.160156 213.628906 148.226562 214.125 148.335938 C 214.621094 148.441406 215.105469 148.59375 215.574219 148.789062 C 216.042969 148.988281 216.492188 149.222656 216.917969 149.496094 C 217.34375 149.773438 217.742188 150.085938 218.113281 150.433594 C 218.484375 150.78125 218.820312 151.160156 219.125 151.566406 C 219.429688 151.976562 219.691406 152.40625 219.917969 152.863281 C 220.144531 153.316406 220.328125 153.789062 220.46875 154.277344 C 220.609375 154.765625 220.703125 155.265625 220.757812 155.769531 C 220.808594 156.277344 220.8125 156.78125 220.773438 157.289062 C 220.734375 157.796875 220.652344 158.296875 220.523438 158.789062 C 220.394531 159.277344 220.222656 159.753906 220.007812 160.214844 C 219.792969 160.675781 219.539062 161.117188 219.246094 161.53125 C 218.953125 161.945312 218.625 162.332031 218.265625 162.6875 C 217.902344 163.046875 217.511719 163.367188 217.089844 163.652344 C 216.671875 163.941406 216.230469 164.1875 215.765625 164.394531 C 215.300781 164.601562 214.820312 164.765625 214.328125 164.886719 C 213.832031 165.007812 213.332031 165.082031 212.824219 165.113281 C 212.320312 165.144531 211.8125 165.128906 211.308594 165.070312 C 210.804688 165.011719 210.308594 164.90625 209.820312 164.757812 C 209.335938 164.609375 208.867188 164.417969 208.414062 164.183594 C 208.195312 164.066406 207.972656 163.941406 207.753906 163.808594 C 207.355469 163.441406 206.992188 163.046875 206.65625 162.625 C 206.324219 162.199219 206.027344 161.75 205.769531 161.277344 C 205.507812 160.804688 205.289062 160.3125 205.109375 159.804688 C 204.929688 159.292969 204.792969 158.773438 204.699219 158.242188 C 204.605469 157.710938 204.554688 157.175781 204.546875 156.636719 C 204.539062 156.097656 204.574219 155.558594 204.65625 155.027344 C 204.738281 154.492188 204.859375 153.96875 205.027344 153.457031 C 205.191406 152.941406 205.398438 152.445312 205.648438 151.964844 C 206.011719 151.265625 206.453125 150.621094 206.96875 150.027344 Z M 206.96875 150.027344 " fill-opacity="1" fill-rule="nonzero"/><path fill="#ffffff" d="M 202.828125 154.433594 C 202.617188 155.050781 202.351562 155.640625 202.027344 156.203125 C 201.703125 156.769531 201.328125 157.292969 200.898438 157.785156 C 200.46875 158.273438 200 158.714844 199.484375 159.113281 C 198.96875 159.507812 198.417969 159.851562 197.835938 160.140625 C 197.253906 160.429688 196.648438 160.65625 196.019531 160.828125 C 195.390625 160.996094 194.753906 161.101562 194.105469 161.144531 C 193.457031 161.191406 192.808594 161.167969 192.164062 161.085938 C 191.519531 161 190.890625 160.855469 190.273438 160.648438 C 189.65625 160.4375 189.066406 160.171875 188.503906 159.847656 C 187.941406 159.523438 187.414062 159.148438 186.925781 158.71875 C 186.433594 158.292969 185.992188 157.820312 185.59375 157.304688 C 185.199219 156.789062 184.855469 156.238281 184.566406 155.65625 C 184.277344 155.074219 184.050781 154.46875 183.878906 153.839844 C 183.710938 153.210938 183.605469 152.574219 183.558594 151.925781 C 183.515625 151.277344 183.535156 150.628906 183.621094 149.984375 C 183.703125 149.339844 183.847656 148.707031 184.058594 148.09375 C 184.265625 147.476562 184.53125 146.886719 184.855469 146.320312 C 185.179688 145.757812 185.554688 145.230469 185.984375 144.742188 C 186.410156 144.25 186.882812 143.808594 187.398438 143.410156 C 187.910156 143.015625 188.460938 142.671875 189.042969 142.382812 C 189.625 142.09375 190.230469 141.863281 190.859375 141.695312 C 191.488281 141.523438 192.125 141.417969 192.773438 141.375 C 193.421875 141.328125 194.070312 141.347656 194.714844 141.433594 C 195.359375 141.515625 195.988281 141.660156 196.605469 141.871094 C 197.226562 142.074219 197.816406 142.335938 198.382812 142.660156 C 198.949219 142.980469 199.480469 143.355469 199.972656 143.785156 C 200.464844 144.210938 200.910156 144.683594 201.308594 145.199219 C 201.707031 145.714844 202.050781 146.265625 202.339844 146.851562 C 202.628906 147.4375 202.859375 148.042969 203.027344 148.671875 C 203.199219 149.304688 203.300781 149.941406 203.34375 150.59375 C 203.386719 151.246094 203.363281 151.894531 203.277344 152.539062 C 203.1875 153.1875 203.039062 153.816406 202.828125 154.433594 Z M 202.828125 154.433594 " fill-opacity="1" fill-rule="nonzero"/><path fill="#232323" d="M 203.3125 152.136719 C 203.265625 151.628906 203.175781 151.128906 203.039062 150.640625 C 202.902344 150.152344 202.726562 149.675781 202.507812 149.21875 C 202.285156 148.761719 202.027344 148.324219 201.726562 147.914062 C 201.429688 147.503906 201.097656 147.121094 200.730469 146.769531 C 200.363281 146.417969 199.96875 146.101562 199.542969 145.820312 C 199.121094 145.539062 198.675781 145.300781 198.207031 145.097656 C 197.742188 144.898438 197.261719 144.738281 196.765625 144.625 C 196.269531 144.511719 195.769531 144.441406 195.261719 144.417969 C 194.753906 144.390625 194.25 144.414062 193.746094 144.480469 C 193.242188 144.546875 192.746094 144.65625 192.261719 144.8125 C 191.777344 144.964844 191.3125 145.164062 190.863281 145.402344 C 190.414062 145.640625 189.992188 145.917969 189.59375 146.234375 C 189.195312 146.546875 188.824219 146.894531 188.488281 147.277344 C 188.152344 147.65625 187.851562 148.066406 187.589844 148.5 C 187.328125 148.933594 187.105469 149.390625 186.921875 149.863281 C 186.738281 150.339844 186.601562 150.824219 186.507812 151.324219 C 186.414062 151.824219 186.363281 152.328125 186.359375 152.835938 C 186.355469 153.34375 186.398438 153.851562 186.484375 154.351562 C 186.570312 154.851562 186.703125 155.339844 186.875 155.820312 C 187.050781 156.296875 187.265625 156.753906 187.523438 157.191406 C 187.777344 157.632812 188.074219 158.042969 188.402344 158.429688 C 188.734375 158.816406 189.097656 159.167969 189.492188 159.492188 C 189.882812 159.8125 190.304688 160.09375 190.75 160.339844 C 191.195312 160.585938 191.65625 160.789062 192.140625 160.953125 C 192.378906 161.035156 192.617188 161.101562 192.863281 161.160156 C 193.996094 161.226562 195.113281 161.101562 196.203125 160.78125 C 197.164062 160.503906 198.058594 160.089844 198.894531 159.542969 C 199.726562 158.992188 200.460938 158.332031 201.097656 157.558594 C 201.730469 156.789062 202.238281 155.941406 202.613281 155.015625 C 202.992188 154.089844 203.222656 153.128906 203.3125 152.136719 Z M 203.3125 152.136719 " fill-opacity="1" fill-rule="nonzero"/><g clip-path="url(#b6e4f85c64)"><path fill="#995c3d" d="M 137.191406 75.269531 L 122.824219 76.441406 C 122.824219 76.441406 100.246094 82.601562 85.585938 92.574219 C 70.921875 102.550781 65.941406 111.054688 64.476562 118.09375 C 63.007812 125.132812 70.046875 138.628906 70.046875 138.628906 L 115.976562 208.738281 C 103.710938 203.742188 81.683594 194.753906 81.683594 194.753906 L 83.25 202.1875 L 147.988281 257.597656 L 194.382812 328.417969 C 194.382812 328.417969 213.441406 357.164062 223.703125 358.046875 C 233.96875 358.925781 253.613281 355.40625 267.980469 348.078125 C 282.347656 340.753906 302.316406 328.867188 303.753906 322.851562 C 309.320312 299.671875 137.191406 75.269531 137.191406 75.269531 Z M 137.191406 75.269531 " fill-opacity="1" fill-rule="nonzero"/></g><path fill="#824a31" d="M 133.015625 93.371094 C 133.484375 91.761719 133.90625 89.699219 132.929688 88.003906 C 132.382812 87.050781 131.453125 86.296875 130.007812 85.632812 C 124.070312 82.917969 117.066406 84.40625 110.996094 86.21875 C 102.082031 88.875 90.917969 93.046875 83.640625 101.738281 C 81.535156 104.257812 79.984375 107.855469 81.96875 110.394531 C 82.5625 111.15625 83.445312 111.75 84.675781 112.207031 C 89.058594 113.84375 93.847656 112.6875 97.53125 111.496094 C 104.398438 109.28125 110.726562 106.023438 116.519531 101.722656 C 118.511719 100.25 120.433594 98.558594 121.101562 96.183594 C 121.277344 95.515625 121.484375 94.253906 120.726562 93.304688 C 120.175781 92.609375 119.328125 92.339844 118.492188 92.152344 C 112 90.703125 104.742188 92.394531 99.558594 96.574219 L 100.160156 97.320312 C 105.121094 93.324219 112.066406 91.703125 118.289062 93.09375 C 118.953125 93.242188 119.613281 93.449219 119.984375 93.90625 C 120.492188 94.546875 120.292969 95.539062 120.183594 95.933594 C 119.601562 98.027344 117.808594 99.585938 115.957031 100.960938 C 110.246094 105.195312 104.007812 108.40625 97.246094 110.589844 C 93.707031 111.734375 89.121094 112.847656 85.015625 111.316406 C 83.949219 110.921875 83.210938 110.425781 82.730469 109.8125 C 81.09375 107.71875 82.597656 104.488281 84.378906 102.359375 C 91.496094 93.859375 102.484375 89.757812 111.269531 87.132812 C 117.167969 85.375 123.960938 83.921875 129.609375 86.503906 C 130.863281 87.078125 131.65625 87.707031 132.097656 88.480469 C 132.890625 89.859375 132.511719 91.675781 132.097656 93.105469 C 129.28125 102.78125 121.753906 111.527344 111.445312 117.089844 C 103.046875 121.625 92.773438 124.273438 80.042969 125.1875 C 75.199219 125.53125 69.175781 125.453125 65.574219 121.757812 L 64.886719 122.425781 C 67.921875 125.539062 72.433594 126.273438 76.671875 126.273438 C 77.851562 126.273438 79.011719 126.21875 80.109375 126.140625 C 92.980469 125.21875 103.378906 122.535156 111.898438 117.933594 C 122.425781 112.238281 130.128906 103.292969 133.015625 93.371094 Z M 133.015625 93.371094 " fill-opacity="1" fill-rule="nonzero"/><path fill="#824a31" d="M 85.582031 134.328125 C 129.453125 199.589844 175.632812 264.5625 222.839844 327.449219 L 223.601562 326.875 C 176.40625 264.003906 130.234375 199.042969 86.375 133.792969 Z M 85.582031 134.328125 " fill-opacity="1" fill-rule="nonzero"/><path fill="#824a31" d="M 105.9375 129.375 C 121.851562 150.625 137.511719 172.515625 152.484375 194.441406 L 153.277344 193.910156 C 138.292969 171.964844 122.625 150.0625 106.703125 128.800781 Z M 105.9375 129.375 " fill-opacity="1" fill-rule="nonzero"/><path fill="#824a31" d="M 163.699219 180.5625 L 164.660156 180.5625 C 164.675781 177.730469 163.140625 175.332031 161.277344 172.710938 L 123.164062 118.941406 L 122.382812 119.496094 L 160.5 173.269531 C 162.261719 175.753906 163.71875 178.015625 163.699219 180.5625 Z M 163.699219 180.5625 " fill-opacity="1" fill-rule="nonzero"/><path fill="#824a31" d="M 186.515625 178.191406 L 187.257812 177.589844 L 181.386719 170.339844 C 173.257812 160.316406 164.855469 149.949219 158.105469 138.695312 L 157.285156 139.1875 C 164.058594 150.503906 172.488281 160.894531 180.636719 170.945312 Z M 186.515625 178.191406 " fill-opacity="1" fill-rule="nonzero"/><path fill="#824a31" d="M 229.515625 293.0625 C 218.925781 277.835938 207.363281 263.386719 194.835938 249.707031 L 194.125 250.355469 C 206.625 264 218.164062 278.414062 228.734375 293.605469 C 232.21875 298.613281 235.792969 304.003906 237.851562 309.941406 C 238.359375 311.410156 239.3125 314.996094 237.140625 316.550781 C 234.914062 318.152344 231.78125 315.972656 230.113281 314.527344 C 223.324219 308.648438 217.234375 302.113281 211.847656 294.921875 C 206.460938 287.734375 201.898438 280.054688 198.160156 271.882812 C 197.625 270.699219 197.558594 269.914062 197.980469 269.472656 C 198.246094 269.191406 198.726562 269.066406 199.402344 269.097656 C 202.09375 269.230469 204.675781 270.898438 207.53125 274.355469 C 211.480469 279.148438 214.441406 284.488281 216.414062 290.375 C 214.714844 289.699219 213.269531 288.671875 212.070312 287.292969 L 211.34375 287.917969 C 212.886719 289.691406 214.777344 290.917969 217.027344 291.601562 L 217.886719 291.855469 L 217.621094 291 C 215.625 284.636719 212.507812 278.882812 208.269531 273.734375 C 206.359375 271.421875 203.363281 268.320312 199.449219 268.132812 C 198.472656 268.085938 197.742188 268.308594 197.277344 268.808594 C 196.21875 269.925781 197.023438 271.691406 197.285156 272.269531 C 201.054688 280.5 205.652344 288.238281 211.082031 295.484375 C 216.511719 302.726562 222.648438 309.3125 229.488281 315.238281 C 230.871094 316.429688 233.15625 318.054688 235.359375 318.054688 C 236.21875 318.0625 236.996094 317.816406 237.691406 317.3125 C 240.382812 315.378906 239.328125 311.28125 238.746094 309.613281 C 236.65625 303.574219 233.039062 298.121094 229.515625 293.0625 Z M 229.515625 293.0625 " fill-opacity="1" fill-rule="nonzero"/><path fill="#824a31" d="M 227.246094 244.003906 L 226.460938 244.554688 C 245.445312 271.722656 264.136719 299.648438 282.011719 327.566406 L 282.816406 327.050781 C 264.933594 299.125 246.238281 271.183594 227.246094 244.003906 Z M 227.246094 244.003906 " fill-opacity="1" fill-rule="nonzero"/><path fill="#2c7c63" d="M 79.726562 194.753906 C 79.726562 194.753906 71.515625 191.625 62.71875 191.625 C 53.921875 191.625 48.253906 193.1875 43.367188 191.625 C 38.480469 190.0625 35.738281 184.976562 34.761719 185.566406 C 33.785156 186.152344 41.410156 201.796875 55.09375 205.320312 C 68.773438 208.84375 71.511719 205.90625 76.597656 204.929688 C 81.679688 203.949219 83.242188 202.191406 83.242188 202.191406 Z M 79.726562 194.753906 " fill-opacity="1" fill-rule="nonzero"/><path fill="#338e74" d="M 83.4375 202.96875 C 83.4375 202.96875 62.324219 195.339844 53.332031 168.941406 C 44.339844 142.542969 42.582031 127.875 44.144531 127.480469 C 45.710938 127.089844 45.90625 130.609375 52.160156 139.804688 C 58.414062 148.996094 64.671875 160.335938 72.097656 168.746094 C 79.527344 177.15625 80.113281 182.238281 81.484375 186.738281 C 82.851562 191.238281 83.4375 202.96875 83.4375 202.96875 Z M 83.4375 202.96875 " fill-opacity="1" fill-rule="nonzero"/><path fill="#fff5eb" d="M 194.285156 155.207031 C 194.285156 155.207031 207.183594 181.925781 213.90625 194.832031 C 220.628906 207.734375 251.519531 250.632812 251.519531 250.632812 L 287.132812 228.28125 L 276.230469 146.847656 Z M 194.285156 155.207031 " fill-opacity="1" fill-rule="nonzero"/><path fill="#a39595" d="M 331.097656 80.246094 C 330.074219 75.296875 328.359375 70.601562 325.941406 66.164062 C 323.527344 61.726562 320.523438 57.734375 316.925781 54.1875 L 322.460938 52.929688 C 316.035156 43.003906 305.140625 36.105469 293.417969 34.550781 L 298.5 31.734375 C 298.320312 30.761719 297.460938 30.082031 296.621094 29.5625 C 289.871094 25.367188 281.210938 25.082031 273.585938 27.335938 C 265.964844 29.59375 259.226562 34.144531 253.054688 39.152344 C 252.617188 39.507812 252.183594 39.886719 251.761719 40.285156 C 247.53125 38.847656 236.503906 35.570312 223.992188 35.570312 C 217.726562 35.570312 210.804688 36.945312 204.695312 38.617188 C 202.839844 35.351562 200.554688 32.515625 197.886719 30.351562 C 191.714844 25.34375 184.980469 20.792969 177.359375 18.535156 C 169.734375 16.28125 161.078125 16.566406 154.324219 20.757812 C 153.484375 21.277344 152.617188 21.957031 152.445312 22.929688 L 157.527344 25.742188 C 145.808594 27.296875 134.90625 34.195312 128.484375 44.121094 L 134.019531 45.382812 C 130.421875 48.929688 127.414062 52.921875 125 57.359375 C 122.585938 61.800781 120.867188 66.496094 119.847656 71.445312 L 124.074219 69.902344 C 123.613281 71.847656 123.339844 73.816406 123.242188 75.8125 C 123.148438 77.808594 123.234375 79.796875 123.503906 81.777344 C 123.773438 83.757812 124.222656 85.695312 124.847656 87.59375 C 125.472656 89.492188 126.269531 91.316406 127.230469 93.066406 L 131.222656 90.859375 C 135.023438 100 143.179688 107.484375 152.542969 110.113281 C 151.980469 114.160156 152.011719 117.960938 152.933594 121.390625 C 153.484375 125.308594 155.460938 129.140625 157.605469 132.558594 C 160.074219 136.503906 162.808594 140.253906 165.804688 143.816406 C 167.101562 145.355469 168.542969 146.921875 170.457031 147.550781 L 170.386719 145.722656 C 176.078125 149.472656 181.378906 153.707031 186.296875 158.429688 C 186.4375 157.960938 186.578125 157.496094 186.722656 157.03125 C 195.214844 162.0625 203.816406 167.140625 213.261719 170.003906 C 213.796875 170.164062 214.367188 170.320312 214.910156 170.179688 C 215.226562 170.089844 215.53125 169.972656 215.828125 169.824219 L 227.714844 167.777344 L 227.140625 168.636719 C 231.429688 168.332031 235.636719 167.566406 239.757812 166.347656 C 243.878906 165.125 247.824219 163.476562 251.589844 161.398438 L 251.21875 162.683594 C 258.207031 159.636719 265.328125 156.488281 271.308594 151.671875 C 271.644531 151.402344 273.058594 150.394531 273.917969 149.523438 C 284.550781 143.972656 291.953125 139.164062 293.589844 124.746094 C 293.785156 123.046875 293.949219 121.390625 294.050781 119.761719 C 305.183594 118.527344 315.351562 110.191406 319.730469 99.648438 L 323.722656 101.859375 C 324.6875 100.105469 325.480469 98.28125 326.105469 96.382812 C 326.734375 94.484375 327.179688 92.546875 327.449219 90.566406 C 327.71875 88.585938 327.808594 86.597656 327.710938 84.601562 C 327.617188 82.605469 327.339844 80.632812 326.878906 78.6875 Z M 331.097656 80.246094 " fill-opacity="1" fill-rule="nonzero"/><path fill="#a39595" d="M 324.078125 197.882812 C 311.566406 174.808594 277.164062 140.78125 277.164062 140.78125 L 276.519531 144.121094 C 271.621094 145.324219 268.28125 156.492188 264.699219 159.457031 C 254.3125 168.039062 242.785156 174.636719 230.121094 179.246094 C 222.878906 181.886719 215.445312 183.773438 207.824219 184.90625 C 202.128906 185.753906 196.324219 186.175781 190.792969 187.796875 C 185.261719 189.417969 179.886719 192.425781 176.773438 197.277344 C 175.234375 199.671875 173.882812 199.625 173.164062 202.382812 C 171.703125 207.996094 171.703125 215.21875 173.949219 220.566406 C 177.089844 228.042969 181.511719 230.941406 189.585938 231.714844 C 197.660156 232.488281 201.902344 233.085938 214.804688 231.324219 C 220.851562 230.5 228.914062 228.167969 234.804688 226.578125 C 240.230469 225.113281 246.792969 223.957031 252.140625 222.230469 C 255.40625 221.179688 259.332031 220.480469 262.785156 219.125 L 267 225.652344 C 267 225.652344 260.742188 224.089844 254.488281 225.261719 C 248.234375 226.433594 244.324219 228 238.460938 239.34375 C 232.59375 250.683594 237.675781 276.109375 237.675781 276.109375 C 237.675781 276.109375 228.683594 274.148438 223.601562 279.234375 C 218.519531 284.324219 219.300781 292.535156 220.867188 302.703125 C 222.429688 312.871094 227.121094 314.046875 234.546875 317.175781 C 241.976562 320.304688 250.792969 320.792969 250.792969 320.792969 C 250.792969 320.792969 263.871094 322.652344 272.472656 322.652344 C 281.070312 322.652344 304.53125 313.652344 319.78125 301.921875 C 335.027344 290.1875 340.5 276.113281 340.894531 256.160156 C 341.285156 236.203125 336.589844 220.960938 324.078125 197.882812 Z M 324.078125 197.882812 " fill-opacity="1" fill-rule="nonzero"/><path fill="#172951" d="M 180.738281 191.21875 C 176.71875 190.421875 172.375 191.171875 168.921875 193.378906 C 168.699219 193.523438 168.464844 193.695312 168.417969 193.953125 C 168.394531 194.171875 168.453125 194.363281 168.59375 194.527344 C 169.417969 195.644531 171.113281 195.359375 172.480469 195.121094 C 175.167969 194.652344 177.824219 194.800781 180.441406 195.570312 C 185.953125 197.1875 186.207031 192.300781 180.738281 191.21875 Z M 180.738281 191.21875 " fill-opacity="1" fill-rule="nonzero"/><path fill="#172951" d="M 168.65625 203.621094 C 169.921875 203.3125 171.1875 203.304688 172.453125 203.597656 C 173.894531 203.925781 175.402344 204.644531 176.777344 204.113281 C 179.789062 202.953125 180.515625 198.359375 176.585938 198.453125 C 172.984375 198.539062 169.113281 200.257812 166.246094 202.347656 C 165.785156 202.683594 165.296875 203.128906 165.316406 203.699219 C 166.25 204.378906 167.535156 203.898438 168.65625 203.621094 Z M 168.65625 203.621094 " fill-opacity="1" fill-rule="nonzero"/><path fill="#172951" d="M 176.261719 213.390625 C 177.003906 213.570312 177.863281 213.789062 178.449219 213.300781 C 179.390625 212.515625 178.671875 210.097656 177.921875 209.375 C 177 208.488281 175.488281 208.5 174.273438 208.585938 C 172.492188 208.710938 170.769531 209.359375 169.199219 210.164062 C 168.515625 210.519531 164.703125 212.40625 164.683594 213.175781 C 164.667969 213.730469 165.421875 213.90625 165.976562 213.878906 C 169.421875 213.683594 172.902344 212.617188 176.261719 213.390625 Z M 176.261719 213.390625 " fill-opacity="1" fill-rule="nonzero"/><path fill="#172951" d="M 176.398438 218.617188 C 173.671875 218.421875 170.289062 220.28125 168.125 221.757812 C 167.824219 221.960938 167.496094 222.246094 167.535156 222.605469 C 167.585938 223.113281 168.253906 223.246094 168.761719 223.21875 C 171.335938 223.085938 173.828125 222.199219 176.410156 222.171875 C 177.757812 222.160156 180.898438 223.199219 180.464844 221.023438 C 180.195312 219.671875 177.535156 218.695312 176.398438 218.617188 Z M 176.398438 218.617188 " fill-opacity="1" fill-rule="nonzero"/><path fill="#172951" d="M 224.140625 278.917969 C 220.40625 276.832031 218.605469 276.179688 214.414062 276.007812 C 214.097656 275.996094 213.75 276.007812 213.511719 276.226562 C 213.1875 276.539062 213.238281 277.148438 213.511719 277.519531 C 213.789062 277.890625 214.207031 278.078125 214.613281 278.246094 C 217.414062 279.382812 218.082031 279.476562 220.652344 281.144531 C 221.824219 281.902344 222.894531 282.867188 224.140625 283.457031 C 225.339844 284.03125 227.253906 283.96875 227.410156 282.152344 C 227.554688 280.425781 225.285156 279.558594 224.140625 278.917969 Z M 224.140625 278.917969 " fill-opacity="1" fill-rule="nonzero"/><path fill="#172951" d="M 213.160156 287.296875 C 211.777344 287.308594 210.257812 287.371094 209.230469 288.300781 C 209.039062 288.441406 208.933594 288.628906 208.910156 288.863281 C 208.910156 289.175781 209.214844 289.386719 209.488281 289.539062 C 212.265625 291.046875 215.515625 291.460938 218.359375 292.847656 C 219.332031 293.324219 220.265625 293.914062 221.320312 294.15625 C 222.375 294.394531 223.632812 294.195312 224.28125 293.332031 C 224.761719 292.703125 224.828125 291.832031 224.636719 291.058594 C 223.601562 286.714844 216.597656 287.261719 213.160156 287.296875 Z M 213.160156 287.296875 " fill-opacity="1" fill-rule="nonzero"/><path fill="#172951" d="M 217.21875 301.527344 C 215.644531 301.613281 213.992188 301.867188 212.761719 302.851562 C 212.394531 303.144531 212.0625 303.691406 212.371094 304.046875 C 212.511719 304.179688 212.679688 304.257812 212.871094 304.28125 C 214.828125 304.707031 216.894531 304.015625 218.832031 304.496094 C 219.710938 304.714844 220.515625 305.167969 221.386719 305.421875 C 222.621094 305.777344 224.3125 305.464844 224.609375 304.214844 C 225.4375 300.785156 218.957031 301.429688 217.21875 301.527344 Z M 217.21875 301.527344 " fill-opacity="1" fill-rule="nonzero"/><path fill="#338e74" d="M 236.894531 144.496094 C 236.894531 144.496094 234.742188 146.84375 232.203125 147.429688 C 230.671875 147.785156 229.121094 147.875 227.558594 147.695312 C 227.558594 147.695312 226.335938 150.558594 231.222656 162.289062 C 236.109375 174.023438 244.320312 188.097656 244.320312 193.382812 C 244.320312 198.667969 246.082031 197.6875 246.863281 196.121094 C 247.644531 194.558594 247.449219 183.996094 246.667969 176.761719 C 245.886719 169.527344 243.734375 159.160156 241.390625 154.46875 C 239.042969 149.773438 236.894531 144.496094 236.894531 144.496094 Z M 236.894531 144.496094 " fill-opacity="1" fill-rule="nonzero"/><path fill="#172951" d="M 245.976562 141.273438 C 245.816406 141.164062 245.65625 141.050781 245.496094 140.9375 L 245.378906 140.851562 L 245.363281 140.835938 L 245.292969 140.785156 L 245.148438 140.667969 C 244.84375 140.421875 244.554688 140.160156 244.273438 139.886719 C 243.992188 139.617188 243.726562 139.332031 243.46875 139.035156 C 243.347656 138.898438 243.230469 138.757812 243.113281 138.613281 C 243.082031 138.578125 243.054688 138.539062 243.023438 138.503906 C 242.957031 138.414062 242.890625 138.324219 242.828125 138.238281 C 242.367188 137.601562 241.964844 136.929688 241.613281 136.226562 C 241.535156 136.0625 241.457031 135.898438 241.382812 135.730469 C 241.363281 135.683594 241.339844 135.640625 241.320312 135.59375 C 241.320312 135.582031 241.300781 135.539062 241.289062 135.515625 L 241.289062 135.496094 L 241.207031 135.292969 C 241.066406 134.925781 240.9375 134.558594 240.828125 134.179688 C 240.710938 133.769531 240.609375 133.355469 240.527344 132.933594 C 240.484375 132.722656 240.453125 132.507812 240.417969 132.292969 C 240.417969 132.234375 240.402344 132.171875 240.398438 132.117188 C 240.382812 131.996094 240.375 131.875 240.363281 131.761719 C 240.324219 131.3125 239.992188 130.871094 239.5 130.898438 C 239.066406 130.917969 238.597656 131.28125 238.640625 131.761719 C 238.816406 133.792969 239.382812 135.707031 240.347656 137.503906 C 240.261719 137.601562 240.203125 137.714844 240.171875 137.84375 C 240.085938 138.179688 239.988281 138.515625 239.871094 138.84375 L 239.777344 139.085938 C 239.769531 139.113281 239.730469 139.203125 239.71875 139.238281 C 239.65625 139.382812 239.589844 139.527344 239.519531 139.667969 C 239.214844 140.292969 238.851562 140.886719 238.4375 141.445312 L 238.292969 141.644531 L 238.230469 141.71875 C 238.113281 141.867188 237.992188 142.011719 237.875 142.15625 C 237.636719 142.421875 237.402344 142.679688 237.164062 142.929688 C 236.664062 143.429688 236.132812 143.898438 235.578125 144.335938 L 235.558594 144.351562 L 235.484375 144.40625 L 235.304688 144.542969 C 235.148438 144.660156 234.984375 144.777344 234.824219 144.898438 C 234.507812 145.121094 234.183594 145.335938 233.851562 145.535156 C 233.191406 145.945312 232.507812 146.308594 231.796875 146.625 C 231.734375 146.65625 231.667969 146.683594 231.605469 146.710938 L 231.425781 146.78125 C 231.234375 146.859375 231.042969 146.933594 230.847656 147.003906 C 230.492188 147.128906 230.113281 147.246094 229.738281 147.347656 C 229.367188 147.445312 228.984375 147.523438 228.605469 147.597656 L 228.355469 147.636719 L 228.21875 147.660156 C 228.007812 147.679688 227.800781 147.707031 227.589844 147.71875 C 227.15625 147.75 226.722656 147.757812 226.285156 147.742188 C 226.0625 147.734375 225.839844 147.71875 225.617188 147.695312 C 225.527344 147.695312 225.441406 147.679688 225.355469 147.667969 L 225.304688 147.667969 L 225.140625 147.644531 C 224.699219 147.570312 224.261719 147.472656 223.835938 147.34375 C 223.636719 147.285156 223.4375 147.21875 223.242188 147.144531 C 223.140625 147.109375 223.039062 147.066406 222.941406 147.027344 L 222.890625 147.003906 C 222.78125 146.449219 222.683594 145.894531 222.597656 145.339844 C 222.578125 145.195312 222.554688 145.050781 222.535156 144.910156 C 222.535156 144.878906 222.515625 144.730469 222.515625 144.742188 C 222.503906 144.664062 222.496094 144.585938 222.484375 144.511719 C 222.445312 144.1875 222.410156 143.867188 222.382812 143.542969 C 222.300781 142.679688 222.253906 141.816406 222.234375 140.953125 C 223.496094 140.816406 224.726562 140.542969 225.925781 140.128906 C 230.472656 138.511719 234.871094 135.144531 235.164062 127.667969 C 235.34375 122.960938 235.417969 116.917969 235.441406 113.074219 C 235.46875 108.835938 233.699219 104.75 230.480469 101.996094 C 228.863281 100.582031 227.003906 99.652344 224.902344 99.207031 C 217.132812 97.59375 211.558594 98.914062 209.359375 102.140625 C 207.164062 105.367188 204.230469 110.503906 204.519531 120.035156 C 204.8125 129.5625 207.453125 137.632812 211.558594 139.394531 C 214.425781 140.582031 217.414062 141.140625 220.515625 141.066406 C 220.574219 143.210938 220.8125 145.339844 221.226562 147.445312 C 221.203125 147.46875 221.179688 147.492188 221.152344 147.515625 L 220.945312 147.691406 C 220.914062 147.71875 220.886719 147.742188 220.851562 147.765625 L 220.828125 147.789062 L 220.8125 147.789062 C 220.5 148.003906 220.191406 148.21875 219.859375 148.40625 C 219.699219 148.492188 219.535156 148.582031 219.371094 148.65625 C 219.300781 148.691406 219.230469 148.726562 219.160156 148.757812 L 219.027344 148.816406 L 219.003906 148.828125 C 218.652344 148.96875 218.289062 149.089844 217.925781 149.195312 C 217.558594 149.300781 217.1875 149.382812 216.8125 149.449219 L 216.496094 149.5 L 216.472656 149.5 L 216.3125 149.519531 C 216.085938 149.542969 215.855469 149.5625 215.625 149.578125 C 214.75 149.625 213.875 149.601562 213.003906 149.503906 L 212.679688 149.46875 L 212.582031 149.453125 L 212.5 149.441406 C 212.269531 149.410156 212.042969 149.375 211.816406 149.332031 C 211.410156 149.261719 211.007812 149.179688 210.605469 149.085938 C 209.835938 148.910156 209.078125 148.6875 208.335938 148.421875 C 208.15625 148.355469 207.980469 148.289062 207.792969 148.214844 L 207.613281 148.144531 L 207.351562 148.03125 C 206.984375 147.863281 206.628906 147.6875 206.28125 147.496094 C 205.925781 147.300781 205.59375 147.09375 205.261719 146.871094 C 205.113281 146.769531 204.964844 146.667969 204.824219 146.5625 L 204.679688 146.457031 C 204.609375 146.402344 204.539062 146.34375 204.472656 146.285156 C 203.796875 145.738281 203.1875 145.125 202.640625 144.453125 L 202.566406 144.359375 L 202.542969 144.328125 L 202.535156 144.316406 C 202.472656 144.234375 202.40625 144.148438 202.355469 144.0625 C 202.234375 143.886719 202.117188 143.71875 202 143.542969 C 201.765625 143.1875 201.550781 142.804688 201.351562 142.421875 C 201.230469 142.21875 201.054688 142.085938 200.828125 142.023438 C 200.597656 141.964844 200.378906 141.996094 200.175781 142.113281 C 199.976562 142.238281 199.847656 142.414062 199.785156 142.640625 C 199.726562 142.867188 199.753906 143.085938 199.863281 143.292969 C 200.617188 144.761719 201.609375 146.046875 202.835938 147.148438 C 204.144531 148.296875 205.613281 149.1875 207.230469 149.820312 C 208.835938 150.453125 210.492188 150.878906 212.199219 151.101562 C 214.085938 151.359375 215.996094 151.386719 217.863281 150.953125 C 219.578125 150.570312 221.09375 149.796875 222.410156 148.636719 C 225.417969 149.824219 228.796875 149.636719 231.792969 148.457031 C 233.339844 147.839844 234.785156 147.039062 236.125 146.046875 C 237.378906 145.148438 238.492188 144.097656 239.46875 142.902344 C 240.34375 141.824219 241.023438 140.632812 241.507812 139.332031 C 242.507812 140.691406 243.707031 141.835938 245.113281 142.769531 C 245.320312 142.886719 245.539062 142.917969 245.765625 142.855469 C 245.996094 142.796875 246.171875 142.664062 246.292969 142.460938 C 246.40625 142.253906 246.433594 142.035156 246.371094 141.804688 C 246.3125 141.574219 246.179688 141.398438 245.976562 141.273438 Z M 218.996094 148.792969 C 219.046875 148.773438 219.035156 148.777344 218.996094 148.792969 Z M 222.898438 146.992188 C 222.886719 146.988281 222.875 146.984375 222.863281 146.976562 L 222.910156 146.996094 Z M 222.898438 146.992188 " fill-opacity="1" fill-rule="nonzero"/><path fill="#172951" d="M 262.160156 101.472656 C 262.027344 100.554688 261.472656 99.515625 260.542969 99.488281 C 259.730469 99.464844 259.144531 100.214844 258.640625 100.855469 C 256.988281 102.953125 254.660156 104.648438 252.007812 104.964844 C 248.273438 105.410156 246.671875 103.246094 245.050781 100.449219 C 243.058594 97.035156 241.621094 102.351562 242.558594 104.4375 C 243.351562 106.203125 244.871094 107.535156 246.523438 108.554688 C 247.730469 109.304688 249.039062 109.917969 250.4375 110.179688 C 251.957031 110.46875 253.53125 110.328125 255.027344 109.949219 C 256.984375 109.449219 258.882812 108.523438 260.261719 107.03125 C 261.640625 105.539062 262.441406 103.480469 262.160156 101.472656 Z M 262.160156 101.472656 " fill-opacity="1" fill-rule="nonzero"/><path fill="#172951" d="M 201.074219 101.171875 C 202.40625 99.3125 202.058594 93.820312 199.425781 96.765625 C 197.273438 99.179688 195.277344 100.980469 191.707031 99.792969 C 189.175781 98.953125 187.230469 96.824219 186.03125 94.441406 C 185.675781 93.714844 185.238281 92.863281 184.429688 92.722656 C 183.515625 92.5625 182.761719 93.46875 182.449219 94.34375 C 181.769531 96.25 182.152344 98.4375 183.207031 100.171875 C 184.261719 101.90625 185.929688 103.195312 187.753906 104.074219 C 189.144531 104.742188 190.660156 105.195312 192.199219 105.21875 C 193.625 105.238281 195.027344 104.898438 196.355469 104.40625 C 198.179688 103.742188 199.945312 102.742188 201.074219 101.171875 Z M 201.074219 101.171875 " fill-opacity="1" fill-rule="nonzero"/><path fill="#2c7c63" d="M 232.460938 150.253906 C 232.640625 155.414062 234.273438 160.347656 236.292969 165.050781 C 238.289062 169.695312 240.691406 174.160156 242.519531 178.875 C 243.589844 181.535156 244.378906 184.277344 244.886719 187.097656 C 244.929688 187.25 245.019531 187.367188 245.160156 187.445312 C 245.300781 187.523438 245.445312 187.539062 245.597656 187.496094 C 245.75 187.453125 245.863281 187.359375 245.941406 187.222656 C 246.019531 187.085938 246.039062 186.9375 246 186.785156 C 245.148438 181.761719 243.125 177.046875 240.980469 172.457031 C 238.835938 167.867188 236.542969 163.351562 235.070312 158.5 C 234.253906 155.816406 233.703125 153.054688 233.609375 150.25 C 233.585938 149.511719 232.4375 149.507812 232.460938 150.25 Z M 232.460938 150.253906 " fill-opacity="1" fill-rule="nonzero"/><path fill="#fff5eb" d="M 185.566406 43.753906 C 176.101562 43.515625 166.132812 44.277344 158.199219 49.449219 L 161.566406 50.175781 C 158.0625 51.449219 154.847656 53.242188 151.925781 55.554688 C 149 57.867188 146.515625 60.582031 144.472656 63.703125 L 147.628906 62.953125 C 145.835938 66.121094 144.527344 69.472656 143.699219 73.015625 C 142.871094 76.558594 142.558594 80.144531 142.761719 83.777344 C 143.726562 82.984375 144.472656 82.019531 145.007812 80.894531 C 145.824219 87.019531 147.714844 92.796875 150.683594 98.21875 C 150.929688 97.355469 151.179688 96.496094 151.425781 95.632812 C 151.828125 96.527344 152.375 97.320312 153.0625 98.015625 C 153.75 98.714844 154.539062 99.269531 155.425781 99.683594 C 156.058594 98.308594 156.363281 96.816406 156.691406 95.335938 C 159.851562 80.996094 165.648438 66.71875 176.324219 56.640625 C 178.726562 54.371094 181.34375 52.347656 183.953125 50.328125 C 186.015625 48.726562 188.121094 47.113281 190.582031 46.25 C 193.363281 45.273438 186.472656 43.777344 185.566406 43.753906 Z M 185.566406 43.753906 " fill-opacity="1" fill-rule="nonzero"/><path fill="#fff5eb" d="M 309.4375 72.222656 C 307.773438 68.882812 305.625 65.894531 302.992188 63.25 C 300.359375 60.609375 297.378906 58.449219 294.046875 56.773438 L 297.46875 56.445312 C 290.199219 50.394531 280.390625 48.457031 270.960938 47.582031 C 270.054688 47.496094 263.039062 48.171875 265.695312 49.46875 C 268.035156 50.613281 269.941406 52.46875 271.800781 54.296875 C 274.15625 56.609375 276.515625 58.921875 278.632812 61.460938 C 288.0625 72.722656 292.132812 87.582031 293.59375 102.195312 C 293.742188 103.699219 293.871094 105.222656 294.339844 106.660156 C 295.269531 106.351562 296.117188 105.894531 296.882812 105.28125 C 297.644531 104.671875 298.28125 103.945312 298.785156 103.109375 L 299.222656 105.761719 C 302.808594 100.726562 305.363281 95.214844 306.890625 89.222656 C 307.289062 90.40625 307.921875 91.449219 308.785156 92.351562 C 309.410156 88.769531 309.519531 85.171875 309.109375 81.558594 C 308.703125 77.945312 307.792969 74.460938 306.386719 71.109375 Z M 309.4375 72.222656 " fill-opacity="1" fill-rule="nonzero"/><path fill="#fff5eb" d="M 273.140625 214.824219 C 269.855469 216.605469 262.660156 219.171875 262.660156 219.171875 L 265.863281 225.367188 C 265.863281 225.367188 271.316406 227.0625 274.226562 225.066406 C 277.136719 223.066406 276.339844 213.101562 273.140625 214.824219 Z M 273.140625 214.824219 " fill-opacity="1" fill-rule="nonzero"/><path fill="#7f6969" d="M 289.097656 236.542969 C 287.164062 233.695312 284.863281 231.011719 281.953125 229.171875 C 279.671875 227.726562 276.316406 226.375 273.589844 227.003906 C 274.910156 228.675781 278.3125 229.878906 280.15625 231.320312 C 282.355469 233.042969 284.332031 234.988281 286.089844 237.15625 C 289.667969 241.539062 292.082031 246.492188 293.328125 252.011719 C 294.488281 246.640625 292.179688 241.09375 289.097656 236.542969 Z M 289.097656 236.542969 " fill-opacity="1" fill-rule="nonzero"/><path fill="#7f6969" d="M 277.820312 151.457031 C 279.421875 150.226562 280.824219 148.765625 282.21875 147.3125 L 282.550781 146.96875 C 282.597656 146.941406 282.632812 146.902344 282.660156 146.855469 C 282.6875 146.808594 282.703125 146.761719 282.703125 146.707031 C 282.707031 146.652344 282.695312 146.601562 282.671875 146.550781 C 282.644531 146.503906 282.609375 146.464844 282.566406 146.433594 C 282.296875 146.152344 282.03125 145.867188 281.757812 145.585938 C 281.441406 145.257812 281.378906 145.304688 281.125 145.675781 C 280.742188 146.226562 280.339844 146.757812 279.90625 147.269531 C 279.472656 147.777344 279.015625 148.265625 278.535156 148.730469 C 278.292969 148.957031 278.054688 149.179688 277.804688 149.394531 C 277.703125 149.484375 277.042969 149.914062 277.042969 150.023438 L 277.125 148.671875 C 275.210938 150.367188 273.210938 151.953125 271.125 153.425781 C 270.964844 153.199219 270.898438 152.945312 270.921875 152.667969 L 268.917969 153.644531 C 268.828125 153.683594 268.75 153.734375 268.675781 153.800781 C 268.609375 153.894531 268.554688 153.996094 268.515625 154.105469 C 267.570312 155.753906 267.050781 156.597656 266.355469 157.632812 C 267.324219 157.519531 268.707031 156.933594 269.585938 156.511719 C 271.390625 155.65625 273.085938 154.582031 274.78125 153.515625 C 275.816406 152.855469 276.851562 152.199219 277.820312 151.457031 Z M 277.820312 151.457031 " fill-opacity="1" fill-rule="nonzero"/><path fill="#7f6969" d="M 306.84375 187.472656 C 307.699219 188.84375 308.511719 190.242188 309.285156 191.664062 C 309.355469 191.785156 309.449219 191.886719 309.5625 191.972656 C 309.675781 192.058594 309.800781 192.117188 309.933594 192.152344 C 310.070312 192.191406 310.210938 192.199219 310.351562 192.179688 C 310.488281 192.160156 310.621094 192.117188 310.742188 192.046875 C 310.992188 191.894531 311.15625 191.675781 311.230469 191.394531 C 311.304688 191.109375 311.269531 190.839844 311.125 190.585938 C 309.753906 188.050781 308.25 185.597656 306.609375 183.230469 C 304.929688 180.808594 303.128906 178.480469 301.195312 176.253906 C 300.128906 175.023438 299.023438 173.824219 297.882812 172.664062 C 297.671875 172.46875 297.421875 172.371094 297.132812 172.375 C 296.847656 172.382812 296.601562 172.484375 296.398438 172.691406 C 296.195312 172.894531 296.089844 173.136719 296.085938 173.425781 C 296.082031 173.714844 296.175781 173.960938 296.371094 174.171875 C 298.382812 176.21875 300.273438 178.371094 302.050781 180.621094 L 302.367188 181.027344 C 302.390625 181.058594 302.542969 181.25 302.453125 181.136719 L 302.464844 181.152344 C 302.503906 181.207031 302.542969 181.257812 302.582031 181.308594 C 302.800781 181.59375 303.015625 181.875 303.226562 182.160156 C 303.648438 182.730469 304.0625 183.304688 304.472656 183.886719 C 305.292969 185.058594 306.085938 186.253906 306.84375 187.472656 Z M 306.84375 187.472656 " fill-opacity="1" fill-rule="nonzero"/><path fill="#7f6969" d="M 311.464844 209.300781 C 310.363281 206.492188 309.167969 203.722656 307.871094 200.992188 C 307.152344 199.484375 306.40625 197.992188 305.628906 196.511719 C 305.554688 196.390625 305.460938 196.289062 305.347656 196.203125 C 305.238281 196.117188 305.113281 196.058594 304.976562 196.023438 C 304.839844 195.984375 304.699219 195.976562 304.558594 195.996094 C 304.421875 196.015625 304.289062 196.058594 304.167969 196.128906 C 303.917969 196.28125 303.753906 196.5 303.679688 196.78125 C 303.605469 197.066406 303.640625 197.335938 303.78125 197.589844 C 305.152344 200.191406 306.429688 202.839844 307.609375 205.53125 C 307.753906 205.863281 307.894531 206.195312 308.039062 206.527344 C 308.105469 206.683594 308.179688 206.839844 308.242188 207 C 308.222656 206.953125 308.191406 206.878906 308.226562 206.964844 L 308.273438 207.078125 C 308.3125 207.167969 308.351562 207.257812 308.386719 207.347656 C 308.671875 208.03125 308.953125 208.714844 309.222656 209.398438 C 309.761719 210.757812 310.273438 212.128906 310.765625 213.507812 C 311.320312 215.066406 311.84375 216.640625 312.335938 218.222656 C 312.503906 218.757812 313.089844 219.152344 313.648438 218.96875 C 314.210938 218.789062 314.574219 218.226562 314.394531 217.65625 C 313.519531 214.835938 312.542969 212.050781 311.464844 209.300781 Z M 311.464844 209.300781 " fill-opacity="1" fill-rule="nonzero"/><path fill="#7f6969" d="M 331.796875 233.976562 C 330.867188 230.714844 329.851562 227.480469 328.738281 224.269531 C 327.628906 221.0625 326.425781 217.894531 325.128906 214.761719 C 324.371094 212.925781 323.585938 211.101562 322.773438 209.292969 C 322.542969 208.78125 321.761719 208.617188 321.3125 208.910156 C 320.777344 209.25 320.683594 209.820312 320.925781 210.371094 C 321.277344 211.140625 321.621094 211.917969 321.957031 212.695312 L 322.460938 213.863281 C 322.496094 213.953125 322.535156 214.042969 322.574219 214.136719 C 322.585938 214.164062 322.597656 214.191406 322.609375 214.21875 L 322.609375 214.234375 L 322.871094 214.859375 C 323.515625 216.414062 324.140625 217.972656 324.742188 219.542969 C 325.945312 222.683594 327.058594 225.855469 328.078125 229.0625 C 328.660156 230.878906 329.210938 232.707031 329.730469 234.542969 C 329.882812 235.078125 330.492188 235.464844 331.042969 235.289062 C 331.179688 235.25 331.300781 235.1875 331.414062 235.097656 C 331.523438 235.011719 331.617188 234.90625 331.6875 234.785156 C 331.757812 234.660156 331.800781 234.53125 331.820312 234.390625 C 331.839844 234.25 331.832031 234.113281 331.796875 233.976562 Z M 331.796875 233.976562 " fill-opacity="1" fill-rule="nonzero"/></svg>