<svg xmlns="http://www.w3.org/2000/svg" xmlns:xlink="http://www.w3.org/1999/xlink" width="500" zoomAndPan="magnify" viewBox="0 0 375 374.999991" height="500" preserveAspectRatio="xMidYMid meet" version="1.0"><defs><g/><clipPath id="c37764a8f1"><path d="M 179 197 L 182 197 L 182 198.765625 L 179 198.765625 Z M 179 197 " clip-rule="nonzero"/></clipPath><clipPath id="9ffb9b27a1"><path d="M 177 194 L 185 194 L 185 198.765625 L 177 198.765625 Z M 177 194 " clip-rule="nonzero"/></clipPath><clipPath id="cce728abb3"><path d="M 171 197 L 174 197 L 174 198.765625 L 171 198.765625 Z M 171 197 " clip-rule="nonzero"/></clipPath><clipPath id="87eef0e2cc"><path d="M 168 194 L 177 194 L 177 198.765625 L 168 198.765625 Z M 168 194 " clip-rule="nonzero"/></clipPath><clipPath id="58d9ea09ba"><path d="M 184 183 L 189.96875 183 L 189.96875 188 L 184 188 Z M 184 183 " clip-rule="nonzero"/></clipPath><clipPath id="4e6aa9c9d9"><path d="M 176 170.265625 L 177 170.265625 L 177 172 L 176 172 Z M 176 170.265625 " clip-rule="nonzero"/></clipPath><clipPath id="d24ab0ae40"><path d="M 174 170.265625 L 177 170.265625 L 177 172 L 174 172 Z M 174 170.265625 " clip-rule="nonzero"/></clipPath><clipPath id="7b54a460d9"><path d="M 176 170.265625 L 179 170.265625 L 179 172 L 176 172 Z M 176 170.265625 " clip-rule="nonzero"/></clipPath><clipPath id="10903638da"><path d="M 165 173 L 189 173 L 189 198.765625 L 165 198.765625 Z M 165 173 " clip-rule="nonzero"/></clipPath><clipPath id="fa8137a428"><path d="M 182 170.265625 L 187 170.265625 L 187 175 L 182 175 Z M 182 170.265625 " clip-rule="nonzero"/></clipPath><clipPath id="13e303fe3d"><path d="M 39.394531 53.414062 L 321.480469 53.414062 L 321.480469 332.027344 L 39.394531 332.027344 Z M 39.394531 53.414062 " clip-rule="nonzero"/></clipPath><clipPath id="24248b87ea"><path d="M 39.640625 66.257812 L 321.480469 66.257812 L 321.480469 332.027344 L 39.640625 332.027344 Z M 39.640625 66.257812 " clip-rule="nonzero"/></clipPath><clipPath id="214208c270"><path d="M 289 202 L 335.644531 202 L 335.644531 262 L 289 262 Z M 289 202 " clip-rule="nonzero"/></clipPath></defs><g clip-path="url(#c37764a8f1)"><path fill="#f9b233" d="M 181.707031 197.589844 C 181.78125 197.625 181.835938 197.675781 181.878906 197.742188 C 181.925781 197.816406 181.914062 197.886719 181.851562 197.949219 C 181.753906 198.023438 181.601562 197.949219 181.519531 198.035156 C 181.4375 198.121094 181.496094 198.25 181.429688 198.324219 C 181.308594 198.464844 181.027344 198.234375 180.90625 198.375 C 180.878906 198.417969 180.859375 198.464844 180.839844 198.515625 C 180.773438 198.628906 180.605469 198.621094 180.480469 198.578125 C 180.21875 198.496094 179.960938 198.292969 179.945312 198.019531 C 179.945312 197.785156 180.046875 197.613281 180.25 197.5 C 180.683594 197.234375 181.289062 197.347656 181.707031 197.589844 Z M 181.707031 197.589844 " fill-opacity="1" fill-rule="nonzero"/></g><g clip-path="url(#9ffb9b27a1)"><path stroke-linecap="butt" transform="matrix(0.0967742, 0, 0, 0.0960024, 153.05103, 160.149085)" fill="none" stroke-linejoin="miter" d="M 296.112047 389.998184 C 296.878974 390.364386 297.444079 390.893344 297.888089 391.585059 C 298.372464 392.358151 298.25137 393.090555 297.605537 393.74158 C 296.596422 394.514673 295.022203 393.74158 294.174547 394.63674 C 293.326891 395.5319 293.932359 396.87464 293.246161 397.647733 C 291.994859 399.11254 289.088609 396.711884 287.837306 398.176691 C 287.554754 398.624271 287.352931 399.11254 287.151108 399.641498 C 286.46491 400.821482 284.729233 400.740104 283.437566 400.292524 C 280.733139 399.438053 278.069076 397.32222 277.907618 394.473984 C 277.907618 392.032639 278.957097 390.242319 281.056056 389.062335 C 285.536525 386.295477 291.793036 387.47546 296.112047 389.998184 Z M 296.112047 389.998184 " stroke="#000000" stroke-width="2.11" stroke-opacity="1" stroke-miterlimit="10"/></g><g clip-path="url(#cce728abb3)"><path fill="#f9b233" d="M 171.539062 197.589844 C 171.46875 197.625 171.410156 197.675781 171.371094 197.742188 C 171.324219 197.816406 171.332031 197.886719 171.398438 197.949219 C 171.488281 198.023438 171.648438 197.949219 171.730469 198.035156 C 171.8125 198.121094 171.75 198.25 171.820312 198.324219 C 171.941406 198.464844 172.222656 198.234375 172.34375 198.375 C 172.375 198.414062 172.378906 198.46875 172.40625 198.515625 C 172.472656 198.628906 172.640625 198.621094 172.769531 198.578125 C 173.03125 198.496094 173.285156 198.292969 173.304688 198.019531 C 173.304688 197.785156 173.203125 197.613281 173 197.5 C 172.566406 197.234375 171.957031 197.347656 171.539062 197.589844 Z M 171.539062 197.589844 " fill-opacity="1" fill-rule="nonzero"/></g><g clip-path="url(#87eef0e2cc)"><path stroke-linecap="butt" transform="matrix(0.0967742, 0, 0, 0.0960024, 153.05103, 160.149085)" fill="none" stroke-linejoin="miter" d="M 191.043023 389.998184 C 190.31646 390.364386 189.710992 390.893344 189.307346 391.585059 C 188.822971 392.358151 188.9037 393.090555 189.589898 393.74158 C 190.518283 394.514673 192.173231 393.74158 193.020888 394.63674 C 193.868544 395.5319 193.222711 396.87464 193.949273 397.647733 C 195.200576 399.11254 198.106826 396.711884 199.358128 398.176691 C 199.681045 398.583582 199.721409 399.153229 200.003962 399.641498 C 200.69016 400.821482 202.425837 400.740104 203.757868 400.292524 C 206.462296 399.438053 209.085994 397.32222 209.287817 394.473984 C 209.287817 392.032639 208.238338 390.242319 206.139379 389.062335 C 201.65891 386.295477 195.362034 387.47546 191.043023 389.998184 Z M 191.043023 389.998184 " stroke="#000000" stroke-width="2.11" stroke-opacity="1" stroke-miterlimit="10"/></g><g clip-path="url(#58d9ea09ba)"><path stroke-linecap="round" transform="matrix(0.0967742, 0, 0, 0.0960024, 153.05103, 160.149085)" fill-opacity="1" fill="#575756" fill-rule="nonzero" stroke-linejoin="round" d="M 352.622471 284.287927 C 352.622471 284.287927 381.483152 256.985547 377.729245 245.918114 C 373.934974 234.850681 328.847729 256.253143 328.847729 256.253143 " stroke="#000000" stroke-width="5.62" stroke-opacity="1" stroke-miterlimit="4"/></g><path stroke-linecap="round" transform="matrix(0.0967742, 0, 0, 0.0960024, 153.05103, 160.149085)" fill-opacity="1" fill="#575756" fill-rule="nonzero" stroke-linejoin="round" d="M 156.410206 289.903021 C 156.410206 289.903021 120.566451 307.073817 111.605513 299.587025 C 102.644574 292.100232 138.770881 257.677261 138.770881 257.677261 " stroke="#000000" stroke-width="5.62" stroke-opacity="1" stroke-miterlimit="4"/><path stroke-linecap="round" transform="matrix(0.0967742, 0, 0, 0.0960024, 153.05103, 160.149085)" fill-opacity="1" fill="#fffbbd" fill-rule="nonzero" stroke-linejoin="round" d="M 267.009179 140.49268 C 267.049543 141.876109 266.968814 143.218849 266.807356 144.602278 L 218.087297 146.473977 C 217.441464 143.340917 217.360735 140.167168 217.966204 136.993418 C 218.531308 133.77898 219.701881 130.849366 221.437558 128.123197 C 223.173235 125.397028 225.352923 123.118439 228.016986 121.24674 C 230.640684 119.415731 233.546935 118.11368 236.695373 117.381277 C 238.229227 117.015075 239.763081 116.81163 241.296936 116.77094 C 243.153707 116.689562 244.970113 116.81163 246.78652 117.177831 C 249.531312 117.70679 252.15501 118.642639 254.576885 120.026068 C 256.998761 121.409497 259.138084 123.159128 260.994855 125.27496 C 262.811262 127.431482 264.264387 129.791449 265.273501 132.395551 C 266.322981 134.999653 266.888085 137.685133 267.009179 140.49268 Z M 267.009179 140.49268 " stroke="#000000" stroke-width="5.62" stroke-opacity="1" stroke-miterlimit="4"/><path stroke-linecap="round" transform="matrix(0.0967742, 0, 0, 0.0960024, 153.05103, 160.149085)" fill-opacity="1" fill="#f9c975" fill-rule="nonzero" stroke-linejoin="round" d="M 251.993552 143.666429 L 232.981831 144.398833 C 232.335997 139.719588 232.335997 135.040342 232.981831 130.320408 C 233.587299 126.292188 234.838602 122.426724 236.735737 118.805395 C 238.269592 118.479882 239.803446 118.276437 241.3373 118.235748 C 243.194071 118.15437 245.010478 118.276437 246.826884 118.56126 C 247.23053 119.49711 247.593812 120.432959 247.916728 121.450186 C 250.419333 128.611466 251.791729 136.057569 251.993552 143.666429 Z M 251.993552 143.666429 " stroke="#000000" stroke-width="2.66" stroke-opacity="1" stroke-miterlimit="4"/><g clip-path="url(#4e6aa9c9d9)"><path fill="#000000" d="M 176.609375 170.988281 C 176.609375 171.148438 176.53125 171.226562 176.371094 171.226562 C 176.210938 171.226562 176.132812 171.148438 176.132812 170.988281 C 176.132812 170.832031 176.210938 170.753906 176.371094 170.753906 C 176.53125 170.753906 176.609375 170.832031 176.609375 170.988281 Z M 176.609375 170.988281 " fill-opacity="1" fill-rule="nonzero"/></g><g clip-path="url(#d24ab0ae40)"><path fill="#000000" d="M 176.460938 170.976562 C 176.464844 171.007812 176.382812 171.035156 176.214844 171.0625 C 176.046875 171.085938 175.847656 171.105469 175.609375 171.113281 C 175.375 171.125 175.171875 171.121094 175.003906 171.109375 C 174.835938 171.09375 174.753906 171.074219 174.75 171.042969 C 174.75 171.015625 174.832031 170.988281 175 170.960938 C 175.164062 170.933594 175.367188 170.917969 175.601562 170.90625 C 175.839844 170.898438 176.039062 170.902344 176.207031 170.914062 C 176.375 170.929688 176.460938 170.949219 176.460938 170.976562 Z M 176.460938 170.976562 " fill-opacity="1" fill-rule="nonzero"/></g><g clip-path="url(#7b54a460d9)"><path fill="#000000" d="M 178.023438 170.886719 C 178.027344 170.914062 177.945312 170.941406 177.777344 170.96875 C 177.609375 170.996094 177.410156 171.011719 177.171875 171.023438 C 176.9375 171.03125 176.734375 171.027344 176.566406 171.015625 C 176.398438 171 176.316406 170.980469 176.3125 170.953125 C 176.3125 170.921875 176.394531 170.894531 176.5625 170.867188 C 176.726562 170.839844 176.929688 170.824219 177.164062 170.8125 C 177.402344 170.804688 177.605469 170.808594 177.773438 170.820312 C 177.941406 170.835938 178.023438 170.855469 178.023438 170.886719 Z M 178.023438 170.886719 " fill-opacity="1" fill-rule="nonzero"/></g><path fill="#575756" d="M 186.898438 185.921875 C 186.566406 185.136719 186.410156 184.320312 186.425781 183.472656 C 186.492188 180.269531 185.332031 177.921875 183.671875 176.277344 C 182.511719 175.125 181.15625 174.285156 179.601562 173.761719 C 177.117188 172.949219 174.484375 173.417969 173.644531 173.710938 C 172.570312 174.078125 171.574219 174.589844 170.648438 175.246094 C 168.371094 176.878906 166.59375 179.527344 166.675781 183.472656 C 166.6875 184.320312 166.53125 185.136719 166.199219 185.921875 C 164.167969 190.800781 165.632812 196.992188 171.910156 197.558594 C 173.429688 197.695312 175.007812 197.785156 176.546875 197.773438 C 178.097656 197.785156 179.667969 197.695312 181.1875 197.558594 C 187.46875 196.992188 188.929688 190.804688 186.898438 185.921875 Z M 186.898438 185.921875 " fill-opacity="1" fill-rule="nonzero"/><g clip-path="url(#10903638da)"><path stroke-linecap="round" transform="matrix(0.0967742, 0, 0, 0.0960024, 153.05103, 160.149085)" fill="none" stroke-linejoin="round" d="M 349.756585 268.45987 C 346.325595 260.281363 344.711012 251.777343 344.87247 242.94781 C 345.558668 209.582756 333.570385 185.128613 316.415435 167.998506 C 304.427152 155.995224 290.42064 147.247069 274.355534 141.794731 C 248.683655 133.3314 221.477923 138.214091 212.799536 141.265773 C 201.699274 145.090548 191.406304 150.420818 181.839897 157.256586 C 158.307342 174.264626 139.941454 201.851829 140.78911 242.94781 C 140.910204 251.777343 139.29562 260.281363 135.86463 268.45987 C 114.875044 319.280545 130.011765 383.772753 194.877659 389.672671 C 210.579484 391.096789 226.886778 392.032639 242.790426 391.910571 C 258.815167 392.032639 275.041732 391.096789 290.743557 389.672671 C 355.649815 383.772753 370.746172 319.321234 349.756585 268.45987 Z M 349.756585 268.45987 " stroke="#000000" stroke-width="5.62" stroke-opacity="1" stroke-miterlimit="4"/></g><path stroke-linecap="round" transform="matrix(0.0967742, 0, 0, 0.0960024, 153.05103, 160.149085)" fill-opacity="1" fill="#ffffff" fill-rule="nonzero" stroke-linejoin="round" d="M 326.102936 277.533538 C 322.79304 268.785383 321.218821 259.711716 321.38028 250.353225 C 321.82429 227.689401 315.48705 208.850353 302.570381 194.324347 C 286.343817 176.177013 262.00397 167.998506 245.091207 167.998506 C 244.32428 167.998506 243.557353 167.998506 242.790426 168.079884 C 242.063863 168.120573 241.296936 167.998506 240.530009 167.998506 C 223.617246 167.998506 199.277399 176.136324 183.050834 194.365036 C 170.134166 208.850353 163.83729 227.689401 164.240936 250.353225 C 164.402394 259.711716 162.828175 268.785383 159.518279 277.533538 C 150.759163 300.889076 151.283903 326.238379 160.850311 343.65331 C 168.31776 357.162088 178.812553 361.393753 197.097711 366.520579 C 206.704483 369.246748 222.971413 370.304664 234.636779 370.670866 C 235.96881 370.711555 237.300842 370.752244 238.713602 370.752244 L 246.907614 370.752244 C 248.28001 370.752244 249.652406 370.711555 250.984437 370.670866 C 262.690168 370.304664 278.916732 369.246748 288.563869 366.520579 C 306.808663 361.393753 317.303456 357.162088 324.770905 343.65331 C 334.377677 326.19769 334.862052 300.889076 326.102936 277.533538 Z M 326.102936 277.533538 " stroke="#000000" stroke-width="2.81" stroke-opacity="1" stroke-miterlimit="4"/><path stroke-linecap="butt" transform="matrix(0.0967742, 0, 0, 0.0960024, 153.05103, 160.149085)" fill-opacity="1" fill="#f9b233" fill-rule="nonzero" stroke-linejoin="miter" d="M 248.078187 243.558147 C 244.485738 242.256096 240.933654 242.296785 237.421935 243.680214 C 236.453185 244.127794 235.726623 244.77882 235.242247 245.755358 C 234.757872 246.691207 234.677143 247.667745 234.959695 248.684972 C 235.686258 251.695965 237.865946 255.317294 241.902405 256.049698 C 246.947978 256.049698 249.894593 251.9401 250.580791 248.033947 C 250.984437 245.836736 250.136781 244.33124 248.078187 243.558147 Z M 248.078187 243.558147 " stroke="#000000" stroke-width="2.11" stroke-opacity="1" stroke-miterlimit="10"/><path fill="#ff9791" d="M 181.5 185.1875 C 181.570312 185.332031 181.554688 185.488281 181.457031 185.65625 C 181.359375 185.824219 181.210938 185.953125 181.003906 186.046875 C 180.800781 186.140625 180.601562 186.171875 180.410156 186.132812 C 180.21875 186.097656 180.085938 186.007812 180.019531 185.863281 C 179.953125 185.71875 179.96875 185.5625 180.066406 185.394531 C 180.164062 185.226562 180.3125 185.09375 180.519531 185.003906 C 180.722656 184.910156 180.921875 184.878906 181.113281 184.914062 C 181.304688 184.949219 181.433594 185.042969 181.5 185.1875 Z M 181.5 185.1875 " fill-opacity="1" fill-rule="nonzero"/><path fill="#ff9791" d="M 172.566406 184.984375 C 172.746094 185.117188 172.867188 185.273438 172.929688 185.460938 C 172.992188 185.644531 172.972656 185.800781 172.878906 185.925781 C 172.785156 186.054688 172.640625 186.117188 172.445312 186.117188 C 172.25 186.113281 172.058594 186.046875 171.878906 185.914062 C 171.695312 185.78125 171.574219 185.625 171.511719 185.441406 C 171.453125 185.253906 171.46875 185.097656 171.5625 184.972656 C 171.65625 184.84375 171.804688 184.78125 172 184.78125 C 172.195312 184.785156 172.382812 184.851562 172.566406 184.984375 Z M 172.566406 184.984375 " fill-opacity="1" fill-rule="nonzero"/><path stroke-linecap="butt" transform="matrix(0.0967742, 0, 0, 0.0960024, 153.05103, 160.149085)" fill-opacity="1" fill="#9fcfe3" fill-rule="nonzero" stroke-linejoin="miter" d="M 235.847716 290.594736 C 234.515685 291.245761 233.183653 291.327139 231.770893 290.798181 C 230.358132 290.065777 229.833393 288.275457 229.712299 286.647894 C 229.591205 284.938952 229.752663 283.23001 230.196674 281.602447 C 230.438861 280.056261 231.205789 278.876278 232.578185 278.062496 C 233.587299 277.655605 234.556049 277.655605 235.565164 278.062496 C 236.533914 278.469387 237.381571 278.998345 238.188862 279.64937 C 239.319071 280.381774 240.287821 281.195556 241.216207 282.172094 C 244.889384 286.607205 239.641988 289.129928 235.847716 290.594736 Z M 235.847716 290.594736 " stroke="#000000" stroke-width="2.11" stroke-opacity="1" stroke-miterlimit="10"/><path stroke-linecap="butt" transform="matrix(0.0967742, 0, 0, 0.0960024, 153.05103, 160.149085)" fill-opacity="1" fill="#9fcfe3" fill-rule="nonzero" stroke-linejoin="miter" d="M 249.612041 290.594736 C 250.944072 291.245761 252.276104 291.327139 253.688864 290.798181 C 255.101625 290.065777 255.666729 288.275457 255.747459 286.647894 C 255.868552 284.938952 255.707094 283.23001 255.263083 281.602447 C 255.020896 280.056261 254.253969 278.876278 252.881573 278.062496 C 251.872458 277.655605 250.903708 277.655605 249.894593 278.062496 C 248.925843 278.469387 248.078187 278.998345 247.270895 279.64937 C 246.140686 280.381774 245.171936 281.195556 244.243551 282.172094 C 240.570373 286.607205 245.81777 289.129928 249.612041 290.594736 Z M 249.612041 290.594736 " stroke="#000000" stroke-width="2.11" stroke-opacity="1" stroke-miterlimit="10"/><path stroke-linecap="butt" transform="matrix(0.0967742, 0, 0, 0.0960024, 153.05103, 160.149085)" fill-opacity="1" fill="#9fcfe3" fill-rule="nonzero" stroke-linejoin="miter" d="M 245.938863 284.450683 C 245.938863 285.264465 245.656311 285.956179 245.091207 286.525827 C 244.526103 287.095474 243.839905 287.380297 243.032613 287.380297 C 242.225321 287.380297 241.539123 287.095474 240.974019 286.525827 C 240.408915 285.956179 240.126363 285.264465 240.126363 284.450683 C 240.126363 283.67759 240.408915 282.985876 240.974019 282.416228 C 241.539123 281.846581 242.225321 281.561757 243.032613 281.561757 C 243.839905 281.561757 244.526103 281.846581 245.091207 282.416228 C 245.656311 282.985876 245.938863 283.67759 245.938863 284.450683 Z M 245.938863 284.450683 " stroke="#000000" stroke-width="2.11" stroke-opacity="1" stroke-miterlimit="10"/><path fill="#000000" d="M 174.5 184.1875 C 174.5 184.460938 174.40625 184.691406 174.210938 184.882812 C 174.019531 185.074219 173.785156 185.167969 173.515625 185.167969 C 173.242188 185.167969 173.007812 185.074219 172.816406 184.882812 C 172.625 184.691406 172.527344 184.460938 172.527344 184.1875 C 172.527344 183.917969 172.625 183.6875 172.816406 183.496094 C 173.007812 183.304688 173.242188 183.210938 173.515625 183.210938 C 173.785156 183.210938 174.019531 183.304688 174.210938 183.496094 C 174.40625 183.6875 174.5 183.917969 174.5 184.1875 Z M 174.5 184.1875 " fill-opacity="1" fill-rule="nonzero"/><path fill="#000000" d="M 180.628906 184.1875 C 180.628906 184.460938 180.535156 184.691406 180.339844 184.882812 C 180.148438 185.074219 179.914062 185.167969 179.644531 185.167969 C 179.371094 185.167969 179.136719 185.074219 178.945312 184.882812 C 178.75 184.691406 178.65625 184.460938 178.65625 184.1875 C 178.65625 183.917969 178.75 183.6875 178.945312 183.496094 C 179.136719 183.304688 179.371094 183.210938 179.644531 183.210938 C 179.914062 183.210938 180.148438 183.304688 180.339844 183.496094 C 180.535156 183.6875 180.628906 183.917969 180.628906 184.1875 Z M 180.628906 184.1875 " fill-opacity="1" fill-rule="nonzero"/><g clip-path="url(#fa8137a428)"><g fill="#000000" fill-opacity="1"><g transform="translate(182.853595, 172.784914)"><g><path d="M 0.109375 0.0625 L 0.171875 -0.03125 L 0.484375 0.09375 L 1.6875 -1.96875 L 1.421875 -2.171875 L 1.46875 -2.265625 L 2.40625 -1.734375 L 2.359375 -1.640625 L 2.03125 -1.78125 L 1.5 -0.859375 L 2.609375 -0.21875 L 3.140625 -1.140625 L 2.875 -1.34375 L 2.921875 -1.4375 L 3.84375 -0.890625 L 3.796875 -0.796875 L 3.46875 -0.9375 L 2.265625 1.125 L 2.546875 1.34375 L 2.484375 1.4375 L 1.5625 0.890625 L 1.625 0.796875 L 1.9375 0.921875 L 2.515625 -0.0625 L 1.40625 -0.703125 L 0.828125 0.28125 L 1.109375 0.5 L 1.046875 0.59375 Z M 0.109375 0.0625 "/></g></g></g></g><g fill="#000000" fill-opacity="1"><g transform="translate(185.442999, 174.278375)"><g><path d="M 1.921875 -1.796875 C 1.890625 -1.742188 1.847656 -1.707031 1.796875 -1.6875 C 1.742188 -1.675781 1.6875 -1.6875 1.625 -1.71875 C 1.570312 -1.75 1.535156 -1.789062 1.515625 -1.84375 C 1.503906 -1.90625 1.515625 -1.960938 1.546875 -2.015625 C 1.578125 -2.066406 1.617188 -2.097656 1.671875 -2.109375 C 1.734375 -2.128906 1.789062 -2.125 1.84375 -2.09375 C 1.90625 -2.0625 1.941406 -2.015625 1.953125 -1.953125 C 1.960938 -1.898438 1.953125 -1.847656 1.921875 -1.796875 Z M 0.734375 0.25 L 0.984375 0.453125 L 0.9375 0.53125 L 0.078125 0.046875 L 0.125 -0.03125 L 0.4375 0.078125 L 1.25 -1.3125 L 1.03125 -1.484375 L 1.078125 -1.5625 L 1.609375 -1.25 Z M 0.734375 0.25 "/></g></g></g><g fill="#000000" fill-opacity="1"><g transform="translate(186.439196, 174.85294)"><g><path d="M 0.90625 0.3125 C 0.875 0.363281 0.820312 0.394531 0.75 0.40625 C 0.6875 0.425781 0.625 0.421875 0.5625 0.390625 C 0.5 0.347656 0.457031 0.296875 0.4375 0.234375 C 0.425781 0.171875 0.4375 0.113281 0.46875 0.0625 C 0.5 0 0.550781 -0.0351562 0.625 -0.046875 C 0.695312 -0.0546875 0.757812 -0.046875 0.8125 -0.015625 C 0.875 0.015625 0.910156 0.0625 0.921875 0.125 C 0.941406 0.1875 0.9375 0.25 0.90625 0.3125 Z M 1.765625 -2.09375 L 2.140625 -1.875 L 1.0625 -0.28125 L 0.90625 -0.375 Z M 1.765625 -2.09375 "/></g></g></g><path fill="#877268" d="M 254.738281 61.878906 C 253.695312 53.28125 261.746094 43.273438 271.050781 46.308594 C 275.023438 47.605469 277.703125 51.515625 278.699219 55.433594 C 279.976562 60.449219 277.546875 64.765625 274.296875 68.410156 C 274.113281 68.699219 273.804688 68.886719 273.414062 68.855469 C 273.378906 68.855469 273.339844 68.847656 273.304688 68.839844 C 273.253906 68.832031 273.203125 68.820312 273.15625 68.808594 C 273.144531 68.804688 273.136719 68.804688 273.121094 68.800781 C 267.285156 66.863281 261.449219 64.925781 255.609375 62.988281 C 255.070312 62.808594 254.804688 62.429688 254.738281 61.878906 " fill-opacity="1" fill-rule="nonzero"/><path fill="#78655c" d="M 268.945312 64.003906 C 271.804688 62.21875 272.710938 57.929688 270.820312 55.136719 C 269.925781 53.816406 268.367188 52.828125 266.789062 53.054688 C 265.558594 53.230469 264.535156 54.097656 263.773438 55.078125 C 262.203125 57.113281 261.503906 59.804688 261.890625 62.347656 L 268.945312 64.003906 " fill-opacity="1" fill-rule="nonzero"/><path fill="#78655c" d="M 269.527344 65.003906 C 273.515625 62.214844 274.472656 55.5 269.894531 52.679688 C 264 49.046875 260.210938 57.714844 260.734375 62.347656 C 260.792969 62.84375 261.054688 63.335938 261.582031 63.460938 C 263.933594 64.015625 266.285156 64.566406 268.636719 65.117188 C 270.082031 65.457031 270.699219 63.226562 269.253906 62.890625 C 266.898438 62.335938 264.546875 61.785156 262.195312 61.234375 C 262.480469 61.605469 262.761719 61.976562 263.042969 62.347656 C 262.734375 59.597656 264.609375 51.898438 268.847656 54.777344 C 271.710938 56.71875 270.925781 61.214844 268.363281 63.007812 C 267.152344 63.851562 268.304688 65.855469 269.527344 65.003906 " fill-opacity="1" fill-rule="nonzero"/><path fill="#877268" d="M 161.195312 91.742188 C 164.84375 81.210938 176.65625 84.644531 183.296875 89.558594 C 183.515625 89.664062 183.691406 89.832031 183.789062 90.042969 C 183.800781 90.0625 183.808594 90.082031 183.816406 90.101562 C 183.824219 90.113281 183.828125 90.128906 183.835938 90.144531 C 183.949219 90.433594 183.902344 90.742188 183.742188 91.011719 C 181.839844 96.121094 179.933594 101.230469 178.03125 106.339844 C 177.625 107.429688 177.238281 109.625 176.089844 110.230469 C 174.183594 111.234375 171.082031 108.644531 169.695312 107.683594 C 164.574219 104.148438 158.808594 98.632812 161.195312 91.742188 " fill-opacity="1" fill-rule="nonzero"/><path fill="#78655c" d="M 178.296875 94.648438 C 176.839844 93.050781 175.078125 91.570312 172.953125 91.171875 C 170.828125 90.773438 168.3125 91.804688 167.675781 93.875 C 167.292969 95.105469 167.628906 96.46875 168.28125 97.582031 C 168.929688 98.695312 169.871094 99.601562 170.804688 100.492188 C 171.667969 101.316406 172.550781 102.160156 173.632812 102.660156 C 174.714844 103.164062 176.054688 103.277344 177.070312 102.652344 L 178.296875 94.648438 " fill-opacity="1" fill-rule="nonzero"/><path fill="#78655c" d="M 179.171875 93.777344 C 176.402344 90.839844 171.882812 88.164062 168.132812 91.175781 C 163.925781 94.558594 167.785156 99.503906 170.71875 102.101562 C 172.554688 103.722656 177.648438 106.085938 178.371094 102.257812 C 178.828125 99.851562 179.117188 97.398438 179.488281 94.976562 C 179.726562 93.421875 177.347656 92.75 177.109375 94.320312 C 176.9375 95.433594 176.765625 96.546875 176.597656 97.65625 C 176.464844 98.519531 176.332031 99.382812 176.199219 100.25 C 176.144531 100.609375 176.148438 101.839844 175.910156 102.125 C 175.398438 102.738281 172.429688 100.328125 171.9375 99.867188 C 170.570312 98.585938 168.757812 97.046875 168.863281 95.011719 C 168.976562 92.910156 170.921875 92.0625 172.84375 92.433594 C 174.722656 92.796875 176.160156 94.179688 177.425781 95.523438 C 178.515625 96.679688 180.261719 94.929688 179.171875 93.777344 " fill-opacity="1" fill-rule="nonzero"/><g clip-path="url(#13e303fe3d)"><path fill="#9a8276" d="M 39.394531 275.605469 C 39.390625 275.453125 39.414062 275.320312 39.449219 275.195312 C 40.359375 268.980469 46.515625 266.886719 52.097656 266.523438 C 59.363281 266.054688 66.25 268.75 72.664062 271.898438 C 87.359375 279.101562 102.339844 286.828125 119.066406 287.496094 C 128.050781 287.855469 136.191406 285.335938 144.109375 281.199219 C 148.230469 279.042969 152.617188 277.386719 156.648438 275.0625 C 161.496094 272.265625 166.085938 268.785156 170.289062 265.109375 C 177.742188 258.582031 184.550781 250.523438 188.101562 241.164062 C 192.953125 228.394531 192.902344 214.195312 191.3125 200.808594 C 190.523438 194.140625 189.277344 187.53125 187.761719 180.992188 C 186.453125 175.316406 186.675781 167.5625 183.445312 162.664062 C 181 158.949219 176.800781 156.496094 174.207031 152.757812 C 169.808594 146.417969 166.886719 138.515625 166.4375 130.808594 C 164.570312 98.683594 187.167969 65.023438 218.332031 56.234375 C 246.304688 48.34375 276.296875 58.160156 293.777344 81.472656 C 302.070312 92.527344 307.328125 106.535156 304.632812 120.445312 C 303.8125 124.6875 306.164062 129.902344 307.429688 134 C 308.953125 138.910156 311.109375 143.585938 313.089844 148.320312 C 315.882812 154.984375 318.070312 161.835938 319.441406 168.933594 C 324.65625 195.992188 318.765625 224.101562 306.644531 248.53125 C 293.742188 274.535156 273.277344 298.445312 247.761719 312.679688 C 217.921875 329.324219 181.019531 334.308594 147.320312 331.113281 C 130.890625 329.554688 114.527344 325.609375 99.828125 317.949219 C 82.949219 309.152344 70.808594 293.878906 53.511719 285.761719 C 48.355469 283.339844 39.640625 282.8125 39.394531 275.605469 " fill-opacity="1" fill-rule="nonzero"/></g><g clip-path="url(#24248b87ea)"><path fill="#8c776c" d="M 46.472656 280.011719 C 63.765625 288.128906 75.910156 303.402344 92.789062 312.199219 C 107.488281 319.859375 123.851562 323.808594 140.277344 325.367188 C 173.976562 328.5625 210.878906 323.578125 240.71875 306.933594 C 266.234375 292.699219 286.699219 268.785156 299.601562 242.785156 C 311.726562 218.355469 317.617188 190.246094 312.398438 163.1875 C 311.03125 156.085938 308.839844 149.234375 306.050781 142.574219 C 304.066406 137.839844 301.914062 133.164062 300.390625 128.25 C 299.121094 124.15625 296.769531 118.941406 297.59375 114.699219 C 300.285156 100.789062 295.023438 86.777344 286.738281 75.726562 C 284.214844 72.363281 281.425781 69.285156 278.421875 66.496094 C 284.179688 70.589844 289.378906 75.601562 293.78125 81.472656 C 302.070312 92.527344 307.332031 106.535156 304.636719 120.445312 C 303.8125 124.6875 306.164062 129.902344 307.429688 134 C 308.953125 138.910156 311.109375 143.585938 313.09375 148.320312 C 315.882812 154.984375 318.070312 161.832031 319.441406 168.933594 C 324.65625 195.992188 318.765625 224.101562 306.644531 248.53125 C 293.742188 274.535156 273.277344 298.445312 247.761719 312.679688 C 217.921875 329.324219 181.019531 334.304688 147.320312 331.113281 C 130.894531 329.554688 114.527344 325.605469 99.832031 317.945312 C 82.949219 309.148438 70.808594 293.875 53.515625 285.761719 C 48.882812 283.585938 41.386719 282.933594 39.726562 277.609375 C 42.050781 278.449219 44.515625 279.097656 46.472656 280.011719 " fill-opacity="1" fill-rule="nonzero"/></g><path fill="#faf1ed" d="M 215.414062 202.226562 C 215.730469 195.582031 217.253906 188.875 216.421875 182.28125 C 215.53125 175.214844 212.488281 169.492188 207.414062 164.601562 C 202.386719 159.761719 196.316406 156.15625 194.257812 149.035156 C 191.835938 140.652344 194.246094 131.609375 198.140625 124.078125 C 207.078125 106.808594 226 94.914062 245.425781 95.332031 C 261.671875 95.683594 285.667969 106.507812 283.292969 126.128906 C 282.71875 130.878906 279.683594 134.664062 278.09375 139.050781 C 276.1875 144.300781 277.800781 147.972656 279.53125 153.035156 C 281.699219 159.371094 284.863281 165.324219 287.160156 171.617188 C 291.703125 184.066406 292.785156 198.066406 287.773438 210.546875 C 280.164062 229.488281 256.335938 248.710938 235.355469 239.183594 C 221.746094 233 214.734375 216.558594 215.414062 202.226562 " fill-opacity="1" fill-rule="nonzero"/><path fill="#301c0a" d="M 215.316406 98.40625 C 215.75 103.769531 223.011719 107.902344 227.496094 109.304688 C 236.410156 112.09375 238.625 105.6875 241.570312 98.507812 C 242.253906 96.832031 242.835938 95.066406 242.785156 93.257812 C 242.730469 91.449219 241.9375 89.574219 240.394531 88.632812 C 238.964844 87.757812 237.164062 87.804688 235.507812 88.039062 C 231.417969 88.613281 227.539062 90.148438 223.699219 91.667969 C 222.136719 92.289062 220.574219 92.90625 219.011719 93.527344 C 217.875 93.976562 216.675781 94.476562 215.972656 95.476562 C 215.382812 96.3125 215.234375 97.386719 215.316406 98.40625 " fill-opacity="1" fill-rule="nonzero"/><path fill="#241508" d="M 224.90625 107.863281 C 233.820312 110.648438 236.035156 104.242188 238.976562 97.0625 C 239.664062 95.386719 240.246094 93.621094 240.191406 91.8125 C 240.152344 90.445312 239.6875 89.042969 238.792969 88.03125 C 239.359375 88.144531 239.898438 88.332031 240.394531 88.632812 C 241.9375 89.578125 242.730469 91.449219 242.785156 93.257812 C 242.835938 95.066406 242.253906 96.832031 241.570312 98.507812 C 238.625 105.6875 236.410156 112.09375 227.496094 109.304688 C 225.753906 108.761719 223.589844 107.796875 221.570312 106.511719 C 222.75 107.085938 223.898438 107.546875 224.90625 107.863281 " fill-opacity="1" fill-rule="nonzero"/><path fill="#ffffff" d="M 222.917969 96.039062 C 221.863281 96.460938 220.953125 97.082031 220.222656 97.960938 C 219.21875 99.179688 217.199219 97.757812 218.210938 96.53125 C 219.214844 95.316406 220.441406 94.375 221.902344 93.789062 C 223.375 93.199219 224.398438 95.449219 222.917969 96.039062 " fill-opacity="1" fill-rule="nonzero"/><path fill="#a39089" d="M 264.167969 170.671875 C 264.378906 171.445312 264.589844 172.214844 264.800781 172.988281 C 265.222656 174.519531 267.601562 173.867188 267.179688 172.332031 C 266.96875 171.558594 266.757812 170.789062 266.546875 170.015625 C 266.125 168.484375 263.746094 169.132812 264.167969 170.671875 " fill-opacity="1" fill-rule="nonzero"/><path fill="#a39089" d="M 257.351562 169.316406 C 257.632812 170.460938 257.914062 171.601562 258.195312 172.746094 C 258.574219 174.289062 260.957031 173.636719 260.574219 172.089844 C 260.292969 170.945312 260.011719 169.800781 259.730469 168.660156 C 259.351562 167.117188 256.96875 167.769531 257.351562 169.316406 " fill-opacity="1" fill-rule="nonzero"/><path fill="#a39089" d="M 260.277344 180.011719 C 260.488281 181.175781 260.695312 182.335938 260.902344 183.496094 C 261.019531 184.15625 261.820312 184.523438 262.421875 184.359375 C 263.113281 184.171875 263.398438 183.5 263.28125 182.839844 C 263.074219 181.679688 262.867188 180.519531 262.660156 179.355469 C 262.542969 178.699219 261.742188 178.328125 261.140625 178.492188 C 260.449219 178.683594 260.160156 179.351562 260.277344 180.011719 " fill-opacity="1" fill-rule="nonzero"/><path fill="#a39089" d="M 250.730469 177.804688 C 251.117188 178.363281 251.238281 178.839844 251.1875 179.496094 C 251.136719 180.164062 251.789062 180.734375 252.421875 180.734375 C 253.128906 180.734375 253.605469 180.164062 253.65625 179.496094 C 253.730469 178.46875 253.445312 177.40625 252.863281 176.558594 C 252.484375 176.007812 251.777344 175.757812 251.171875 176.113281 C 250.628906 176.433594 250.351562 177.25 250.730469 177.804688 " fill-opacity="1" fill-rule="nonzero"/><path fill="#a39089" d="M 240.515625 174.710938 C 240.722656 175.203125 240.8125 175.84375 240.738281 176.375 C 240.652344 177.035156 240.898438 177.699219 241.601562 177.890625 C 242.175781 178.050781 243.03125 177.695312 243.121094 177.03125 C 243.289062 175.761719 243.144531 174.640625 242.644531 173.464844 C 242.386719 172.847656 241.480469 172.714844 240.957031 173.019531 C 240.320312 173.394531 240.253906 174.09375 240.515625 174.710938 " fill-opacity="1" fill-rule="nonzero"/><path fill="#a39089" d="M 243.164062 184.234375 C 243.269531 185.496094 243.367188 186.757812 243.472656 188.019531 C 243.597656 189.59375 246.066406 189.605469 245.9375 188.019531 C 245.835938 186.757812 245.734375 185.496094 245.632812 184.234375 C 245.507812 182.660156 243.039062 182.648438 243.164062 184.234375 " fill-opacity="1" fill-rule="nonzero"/><path fill="#a39089" d="M 234.101562 181.136719 C 234.105469 181.914062 234.113281 182.6875 234.113281 183.464844 C 234.125 185.054688 236.59375 185.058594 236.582031 183.464844 C 236.578125 182.6875 236.574219 181.914062 236.570312 181.136719 C 236.5625 179.546875 234.09375 179.542969 234.101562 181.136719 " fill-opacity="1" fill-rule="nonzero"/><path fill="#000000" d="M 243.761719 81.738281 C 244.960938 86.59375 248.257812 89.953125 251.125 89.246094 C 253.992188 88.535156 255.339844 84.019531 254.140625 79.167969 C 252.941406 74.3125 249.644531 70.949219 246.777344 71.660156 C 243.910156 72.367188 242.558594 76.882812 243.761719 81.738281 " fill-opacity="1" fill-rule="nonzero"/><path fill="#000000" d="M 199.433594 98.546875 C 201.414062 103.136719 205.21875 105.914062 207.929688 104.738281 C 210.640625 103.570312 211.230469 98.898438 209.25 94.304688 C 207.269531 89.710938 203.46875 86.9375 200.753906 88.109375 C 198.046875 89.28125 197.453125 93.953125 199.433594 98.546875 " fill-opacity="1" fill-rule="nonzero"/><path fill="#fbcece" d="M 266.632812 95.367188 C 269.304688 99.042969 274.453125 99.851562 278.125 97.171875 C 281.796875 94.496094 282.605469 89.34375 279.929688 85.671875 C 277.253906 81.996094 272.109375 81.183594 268.4375 83.863281 C 264.765625 86.539062 263.957031 91.6875 266.632812 95.367188 " fill-opacity="1" fill-rule="nonzero"/><path fill="#736560" d="M 272.050781 91.292969 C 284.730469 80.753906 301.371094 79.6875 317.144531 79.023438 C 317.933594 78.988281 318 80.222656 317.203125 80.253906 C 301.625 80.914062 285.257812 81.910156 272.726562 92.328125 C 272.117188 92.832031 271.445312 91.796875 272.050781 91.292969 " fill-opacity="1" fill-rule="nonzero"/><path fill="#736560" d="M 272.289062 93.011719 C 286.476562 85.070312 302.914062 85.296875 318.695312 85.875 C 319.480469 85.90625 319.550781 87.140625 318.757812 87.109375 C 303.230469 86.542969 286.9375 86.222656 272.964844 94.042969 C 272.277344 94.429688 271.59375 93.398438 272.289062 93.011719 " fill-opacity="1" fill-rule="nonzero"/><path fill="#736560" d="M 273.925781 95.164062 C 287.695312 92.9375 301.613281 93.496094 315.160156 96.804688 C 315.929688 96.992188 315.683594 98.203125 314.90625 98.011719 C 301.457031 94.726562 287.648438 94.1875 273.984375 96.398438 C 273.203125 96.527344 273.148438 95.289062 273.925781 95.164062 " fill-opacity="1" fill-rule="nonzero"/><path fill="#fbcece" d="M 190.941406 126.894531 C 190.039062 131.351562 185.699219 134.234375 181.246094 133.335938 C 176.792969 132.433594 173.914062 128.089844 174.816406 123.632812 C 175.714844 119.175781 180.054688 116.292969 184.507812 117.195312 C 188.960938 118.09375 191.84375 122.4375 190.941406 126.894531 " fill-opacity="1" fill-rule="nonzero"/><path fill="#736560" d="M 184.320312 125.457031 C 168.40625 121.164062 152.832031 127.140625 138.222656 133.113281 C 137.484375 133.414062 137.941406 134.5625 138.679688 134.261719 C 153.113281 128.359375 168.410156 122.4375 184.136719 126.675781 C 184.902344 126.882812 185.078125 125.660156 184.320312 125.457031 " fill-opacity="1" fill-rule="nonzero"/><path fill="#736560" d="M 184.816406 127.117188 C 168.613281 125.816406 153.765625 132.882812 139.664062 139.992188 C 138.960938 140.347656 139.410156 141.5 140.121094 141.140625 C 154 134.144531 168.675781 127.058594 184.632812 128.339844 C 185.421875 128.402344 185.609375 127.179688 184.816406 127.117188 " fill-opacity="1" fill-rule="nonzero"/><path fill="#736560" d="M 184.226562 129.757812 C 170.78125 133.476562 158.363281 139.789062 147.425781 148.453125 C 146.804688 148.945312 147.535156 149.941406 148.160156 149.445312 C 159.015625 140.847656 171.34375 134.59375 184.683594 130.902344 C 185.449219 130.691406 184.988281 129.546875 184.226562 129.757812 " fill-opacity="1" fill-rule="nonzero"/><g clip-path="url(#214208c270)"><path fill="#877168" d="M 315.113281 259.371094 C 321.714844 254.640625 327.894531 245.160156 331.398438 238.144531 C 333.621094 233.699219 335.492188 228.929688 335.546875 223.957031 C 335.648438 214.28125 328.089844 205.253906 318.675781 203.054688 C 309.257812 200.851562 298.835938 205.25 293.285156 213.171875 C 292.054688 214.929688 291.035156 216.859375 290.496094 218.9375 C 289.808594 221.605469 289.9375 224.410156 290.199219 227.152344 C 290.933594 234.910156 292.691406 242.566406 295.40625 249.871094 C 298.707031 258.753906 305.773438 266.058594 315.113281 259.371094 " fill-opacity="1" fill-rule="nonzero"/></g><path fill="#faf1ed" d="M 302.117188 234.109375 C 305.332031 229.722656 312.070312 228.519531 316.34375 233.527344 C 317.808594 235.238281 318.28125 237.597656 318.253906 239.847656 C 318.214844 242.769531 317.351562 245.746094 315.449219 247.964844 C 313.550781 250.179688 310.527344 251.511719 307.652344 250.996094 C 305.179688 250.550781 303.058594 248.796875 301.828125 246.605469 C 300.597656 244.414062 300.191406 241.832031 300.300781 239.320312 C 300.390625 237.3125 301.066406 235.542969 302.117188 234.109375 " fill-opacity="1" fill-rule="nonzero"/><path fill="#faf1ed" d="M 296.75 219.523438 C 296.6875 216.96875 297.859375 213.726562 301.132812 214.183594 C 302.269531 214.339844 303.476562 215.664062 304.117188 216.519531 C 305.917969 218.910156 306.132812 222.121094 304.335938 224.582031 C 303.929688 225.132812 303.441406 225.636719 302.828125 225.941406 C 301.246094 226.726562 299.230469 225.929688 298.160156 224.527344 C 297.09375 223.125 296.792969 221.285156 296.75 219.523438 " fill-opacity="1" fill-rule="nonzero"/><path fill="#faf1ed" d="M 308.425781 216.753906 C 308.558594 214.207031 309.96875 211.0625 313.195312 211.761719 C 314.316406 212.007812 315.421875 213.417969 315.996094 214.316406 C 317.609375 216.835938 317.585938 220.058594 315.609375 222.371094 C 315.164062 222.894531 314.632812 223.359375 314 223.617188 C 312.367188 224.277344 310.414062 223.332031 309.457031 221.855469 C 308.496094 220.375 308.335938 218.515625 308.425781 216.753906 " fill-opacity="1" fill-rule="nonzero"/><path fill="#faf1ed" d="M 319.886719 220.945312 C 320.609375 218.496094 322.71875 215.769531 325.691406 217.207031 C 326.726562 217.707031 327.46875 219.335938 327.820312 220.34375 C 328.800781 223.171875 328.023438 226.296875 325.5625 228.085938 C 325.007812 228.488281 324.382812 228.816406 323.707031 228.917969 C 321.964844 229.179688 320.289062 227.804688 319.699219 226.140625 C 319.109375 224.480469 319.390625 222.636719 319.886719 220.945312 " fill-opacity="1" fill-rule="nonzero"/><path fill="#877168" d="M 214.316406 264.347656 C 216.8125 256.617188 216.140625 245.3125 214.792969 237.589844 C 213.933594 232.691406 212.601562 227.742188 209.691406 223.714844 C 204.019531 215.875 192.582031 213.121094 183.707031 216.960938 C 174.832031 220.796875 169.066406 230.539062 169.316406 240.210938 C 169.371094 242.359375 169.695312 244.515625 170.5 246.507812 C 171.527344 249.0625 173.300781 251.238281 175.140625 253.289062 C 180.34375 259.085938 186.308594 264.195312 192.832031 268.449219 C 200.765625 273.621094 210.785156 275.285156 214.316406 264.347656 " fill-opacity="1" fill-rule="nonzero"/><path fill="#faf1ed" d="M 188.855469 251.78125 C 188.832031 246.34375 193.535156 241.363281 199.949219 242.84375 C 202.136719 243.347656 203.925781 244.960938 205.238281 246.785156 C 206.941406 249.15625 208.019531 252.0625 207.808594 254.976562 C 207.597656 257.890625 205.960938 260.765625 203.34375 262.058594 C 201.09375 263.171875 198.34375 263.027344 196.050781 261.996094 C 193.761719 260.96875 191.898438 259.136719 190.496094 257.050781 C 189.375 255.382812 188.863281 253.558594 188.855469 251.78125 " fill-opacity="1" fill-rule="nonzero"/><path fill="#faf1ed" d="M 175.871094 243.253906 C 174.304688 241.238281 173.320312 237.933594 176.21875 236.355469 C 177.230469 235.804688 178.984375 236.148438 180.007812 236.453125 C 182.875 237.300781 184.960938 239.757812 184.976562 242.800781 C 184.980469 243.484375 184.886719 244.183594 184.574219 244.796875 C 183.769531 246.363281 181.675781 246.925781 179.980469 246.4375 C 178.289062 245.945312 176.953125 244.644531 175.871094 243.253906 " fill-opacity="1" fill-rule="nonzero"/><path fill="#faf1ed" d="M 183.613281 234.078125 C 182.203125 231.949219 181.46875 228.582031 184.476562 227.226562 C 185.523438 226.75 187.25 227.230469 188.246094 227.609375 C 191.042969 228.671875 192.9375 231.277344 192.722656 234.316406 C 192.675781 235 192.527344 235.6875 192.171875 236.273438 C 191.25 237.777344 189.121094 238.179688 187.46875 237.5625 C 185.820312 236.945312 184.585938 235.546875 183.613281 234.078125 " fill-opacity="1" fill-rule="nonzero"/><path fill="#faf1ed" d="M 195.316406 230.617188 C 194.441406 228.21875 194.511719 224.773438 197.757812 224.15625 C 198.886719 223.941406 200.453125 224.808594 201.332031 225.414062 C 203.800781 227.101562 205.035156 230.074219 204.121094 232.980469 C 203.914062 233.632812 203.609375 234.269531 203.125 234.753906 C 201.878906 236 199.714844 235.894531 198.253906 234.910156 C 196.792969 233.921875 195.917969 232.273438 195.316406 230.617188 " fill-opacity="1" fill-rule="nonzero"/><path fill="#000000" d="M 263.519531 101.757812 C 257.984375 113.332031 242.878906 115.390625 234.429688 105.796875 C 233.605469 104.863281 232.136719 105.546875 232.25 106.761719 C 233.492188 119.726562 214.089844 126.765625 205.136719 118.503906 C 203.972656 117.429688 202.535156 119.441406 203.691406 120.507812 C 208.777344 125.199219 218.058594 124.996094 224.082031 122.652344 C 229.832031 120.414062 234.015625 115.4375 234.664062 109.472656 C 244.609375 118 259.925781 114.976562 265.824219 102.648438 C 266.507812 101.210938 264.203125 100.332031 263.519531 101.757812 " fill-opacity="1" fill-rule="nonzero"/><path fill="#97c4cf" d="M 285.246094 169.390625 C 277.898438 151.179688 254.617188 142.085938 238.539062 148.582031 C 222.460938 155.078125 212.003906 177.800781 219.351562 196.015625 C 224.550781 208.914062 233.402344 209.511719 245.3125 207.945312 L 245.355469 208.214844 C 245.683594 210.429688 247.808594 211.917969 249.996094 211.441406 C 255.039062 210.335938 264.144531 207.71875 273.617188 201.914062 C 275.617188 200.6875 276.109375 197.996094 274.648438 196.160156 C 284.429688 188.996094 290.480469 182.375 285.246094 169.390625 " fill-opacity="1" fill-rule="nonzero"/><path fill="#ebebeb" d="M 265.308594 197.671875 L 286.84375 181.265625 C 286.953125 180.738281 287.039062 180.199219 287.089844 179.644531 L 264.390625 196.945312 L 286.394531 172.859375 C 286.277344 172.433594 286.171875 172.011719 286.03125 171.570312 L 263.804688 195.898438 L 283.335938 165.480469 C 283.125 165.109375 282.914062 164.738281 282.691406 164.378906 L 263.222656 194.699219 L 278.878906 159.371094 C 278.601562 159.066406 278.320312 158.765625 278.035156 158.472656 L 261.902344 194.875 L 272.324219 153.667969 C 271.992188 153.441406 271.660156 153.210938 271.324219 152.992188 L 260.957031 193.964844 L 265.773438 149.992188 C 265.410156 149.832031 265.046875 149.675781 264.679688 149.523438 L 259.753906 194.515625 L 256.894531 147.179688 C 256.511719 147.105469 256.128906 147.042969 255.746094 146.980469 L 258.578125 193.890625 L 248.289062 146.527344 C 247.90625 146.542969 247.523438 146.574219 247.144531 146.605469 L 257.613281 194.808594 L 238.914062 148.441406 C 238.789062 148.488281 238.660156 148.53125 238.539062 148.582031 C 238.3125 148.671875 238.089844 148.777344 237.867188 148.875 L 256.6875 195.546875 L 230.675781 153.386719 C 230.378906 153.632812 230.089844 153.886719 229.804688 154.144531 L 255.175781 195.265625 L 224.816406 159.691406 C 224.585938 160.003906 224.359375 160.324219 224.136719 160.644531 L 254.761719 196.535156 L 220.226562 167.75 C 220.070312 168.117188 219.925781 168.488281 219.78125 168.859375 L 253.515625 196.976562 L 217.921875 174.859375 C 217.835938 175.253906 217.753906 175.652344 217.679688 176.046875 L 253.464844 198.285156 L 216.960938 183.433594 C 216.960938 183.847656 216.976562 184.261719 216.992188 184.675781 L 252.390625 199.074219 L 217.765625 190.875 C 217.855469 191.289062 217.960938 191.703125 218.070312 192.117188 L 252.804688 200.34375 L 220.375 198.300781 C 220.582031 198.722656 220.804688 199.097656 221.023438 199.484375 L 253.109375 201.5 L 225.234375 204.769531 C 225.664062 205.132812 226.109375 205.457031 226.5625 205.761719 L 252.953125 202.664062 L 233.757812 208.320312 C 234.796875 208.457031 235.867188 208.539062 236.984375 208.554688 C 243.128906 206.746094 249.273438 204.9375 255.417969 203.128906 C 263.3125 200.800781 270.523438 196.234375 277.796875 192.433594 C 278.988281 191.808594 280.179688 191.1875 281.371094 190.566406 C 282.15625 189.78125 282.875 188.980469 283.519531 188.160156 L 265.308594 197.671875 " fill-opacity="1" fill-rule="nonzero"/><path fill="#877168" d="M 315.820312 149.433594 C 316.527344 147.074219 316.902344 144.664062 316.875 142.230469 C 316.746094 129.941406 303.472656 123.390625 294.980469 133.386719 C 287.199219 142.546875 285.957031 155.355469 276.320312 163.605469 C 274.027344 165.574219 271.433594 167.203125 269.359375 169.402344 C 267.285156 171.601562 265.742188 174.589844 266.222656 177.574219 C 266.867188 181.585938 271.070312 184.277344 275.125 184.441406 C 279.179688 184.605469 283.050781 182.816406 286.566406 180.789062 C 297.492188 174.484375 311.851562 162.753906 315.820312 149.433594 " fill-opacity="1" fill-rule="nonzero"/><path fill="#635854" d="M 266.703125 173.5625 C 266.378906 174.421875 266.183594 175.316406 266.152344 176.222656 C 267.46875 176 268.726562 175.480469 269.851562 174.6875 C 271.152344 173.769531 269.617188 171.835938 268.320312 172.75 C 267.8125 173.105469 267.269531 173.375 266.703125 173.5625 " fill-opacity="1" fill-rule="nonzero"/><path fill="#635854" d="M 271.433594 177.988281 C 272.507812 176.816406 270.519531 175.347656 269.457031 176.507812 C 268.621094 177.421875 267.609375 178.136719 266.496094 178.640625 C 266.761719 179.425781 267.160156 180.148438 267.671875 180.796875 C 269.082031 180.125 270.335938 179.183594 271.433594 177.988281 " fill-opacity="1" fill-rule="nonzero"/><path fill="#635854" d="M 272.929688 180.53125 C 272.238281 181.582031 271.351562 182.429688 270.316406 183.039062 C 271.160156 183.523438 272.078125 183.890625 273.023438 184.128906 C 273.738281 183.519531 274.378906 182.816406 274.90625 182.011719 C 275.777344 180.6875 273.804688 179.199219 272.929688 180.53125 " fill-opacity="1" fill-rule="nonzero"/><path fill="#877168" d="M 187.222656 186.640625 C 185.417969 184.96875 183.871094 183.085938 182.65625 180.972656 C 176.527344 170.324219 184.636719 157.925781 197.019531 162.21875 C 208.375 166.152344 215.949219 176.546875 228.4375 178.753906 C 231.410156 179.277344 234.472656 179.363281 237.375 180.203125 C 240.277344 181.042969 243.125 182.828125 244.226562 185.644531 C 245.707031 189.425781 243.453125 193.882812 240.046875 196.085938 C 236.636719 198.289062 232.398438 198.71875 228.339844 198.761719 C 215.726562 198.890625 197.402344 196.09375 187.222656 186.640625 " fill-opacity="1" fill-rule="nonzero"/><path fill="#635854" d="M 241.773438 182.433594 C 242.488281 183.011719 243.113281 183.679688 243.601562 184.441406 C 242.351562 184.921875 241.003906 185.113281 239.636719 185.003906 C 238.046875 184.875 238.390625 182.429688 239.96875 182.554688 C 240.585938 182.605469 241.191406 182.5625 241.773438 182.433594 " fill-opacity="1" fill-rule="nonzero"/><path fill="#635854" d="M 239.949219 188.652344 C 238.429688 188.1875 239.394531 185.910156 240.898438 186.371094 C 242.082031 186.730469 243.316406 186.835938 244.53125 186.703125 C 244.703125 187.511719 244.726562 188.335938 244.613281 189.15625 C 243.058594 189.292969 241.5 189.125 239.949219 188.652344 " fill-opacity="1" fill-rule="nonzero"/><path fill="#635854" d="M 239.949219 191.601562 C 241.082031 192.15625 242.273438 192.433594 243.472656 192.433594 C 242.992188 193.277344 242.390625 194.0625 241.695312 194.75 C 240.773438 194.589844 239.867188 194.308594 239 193.882812 C 237.578125 193.183594 238.523438 190.902344 239.949219 191.601562 " fill-opacity="1" fill-rule="nonzero"/></svg>